G75*
%MOIN*%
%OFA0B0*%
%FSLAX25Y25*%
%IPPOS*%
%LPD*%
%AMOC8*
5,1,8,0,0,1.08239X$1,22.5*
%
%ADD10C,0.00800*%
%ADD11C,0.01200*%
%ADD12OC8,0.05200*%
%ADD13C,0.05200*%
%ADD14R,0.06000X0.06000*%
%ADD15OC8,0.06000*%
%ADD16C,0.06000*%
%ADD17OC8,0.06600*%
%ADD18OC8,0.06200*%
%ADD19C,0.06200*%
%ADD20C,0.06600*%
%ADD21C,0.05000*%
%ADD22C,0.03200*%
%ADD23C,0.00000*%
%ADD24R,0.03962X0.03962*%
%ADD25C,0.06600*%
%ADD26C,0.04000*%
%ADD27C,0.05315*%
%ADD28C,0.05600*%
D10*
X0064676Y0083945D02*
X0070815Y0090083D01*
X0072350Y0090083D01*
X0073884Y0088548D01*
X0073884Y0085479D01*
X0072350Y0083945D01*
X0064676Y0083945D02*
X0064676Y0090083D01*
X0066211Y0093152D02*
X0072350Y0099291D01*
X0066211Y0099291D01*
X0064676Y0097756D01*
X0064676Y0094687D01*
X0066211Y0093152D01*
X0072350Y0093152D01*
X0073884Y0094687D01*
X0073884Y0097756D01*
X0072350Y0099291D01*
X0070815Y0102360D02*
X0073884Y0105430D01*
X0064676Y0105430D01*
X0064676Y0108499D02*
X0064676Y0102360D01*
X0064676Y0111568D02*
X0066211Y0111568D01*
X0072350Y0117707D01*
X0073884Y0117707D01*
X0073884Y0111568D01*
X0064676Y0120776D02*
X0073884Y0126915D01*
X0072350Y0129984D02*
X0073884Y0131518D01*
X0073884Y0134588D01*
X0072350Y0136122D01*
X0066211Y0129984D01*
X0064676Y0131518D01*
X0064676Y0134588D01*
X0066211Y0136122D01*
X0072350Y0136122D01*
X0072350Y0139192D02*
X0066211Y0139192D01*
X0072350Y0145330D01*
X0066211Y0145330D01*
X0064676Y0143796D01*
X0064676Y0140726D01*
X0066211Y0139192D01*
X0072350Y0139192D02*
X0073884Y0140726D01*
X0073884Y0143796D01*
X0072350Y0145330D01*
X0070815Y0148400D02*
X0073884Y0151469D01*
X0064676Y0151469D01*
X0064676Y0148400D02*
X0064676Y0154538D01*
X0067746Y0166815D02*
X0064676Y0169885D01*
X0067746Y0172954D01*
X0073884Y0172954D01*
X0072350Y0176023D02*
X0066211Y0176023D01*
X0072350Y0182162D01*
X0066211Y0182162D01*
X0064676Y0180627D01*
X0064676Y0177558D01*
X0066211Y0176023D01*
X0072350Y0176023D02*
X0073884Y0177558D01*
X0073884Y0180627D01*
X0072350Y0182162D01*
X0070815Y0185231D02*
X0073884Y0188300D01*
X0064676Y0188300D01*
X0064676Y0185231D02*
X0064676Y0191370D01*
X0067746Y0166815D02*
X0073884Y0166815D01*
X0072350Y0129984D02*
X0066211Y0129984D01*
D11*
X0068345Y0031585D02*
X0077553Y0031585D01*
X0077553Y0026981D01*
X0075251Y0026981D02*
X0075251Y0031585D01*
X0072949Y0050000D02*
X0070647Y0052302D01*
X0070647Y0056906D01*
X0072949Y0059208D01*
X0072949Y0063812D02*
X0075251Y0066114D01*
X0075251Y0073020D01*
X0077553Y0073020D02*
X0070647Y0073020D01*
X0070647Y0066114D01*
X0072949Y0063812D01*
X0079854Y0066114D02*
X0079854Y0070718D01*
X0077553Y0073020D01*
X0079854Y0077624D02*
X0070647Y0077624D01*
X0075251Y0077624D02*
X0079854Y0082228D01*
X0079854Y0084530D01*
X0084458Y0089134D02*
X0084458Y0091436D01*
X0070647Y0091436D01*
X0070647Y0089134D02*
X0070647Y0093738D01*
X0082156Y0059208D02*
X0084458Y0056906D01*
X0084458Y0052302D01*
X0082156Y0050000D01*
X0072949Y0050000D01*
D12*
X0116291Y0035897D03*
X0116291Y0065897D03*
X0177000Y0031113D03*
X0197000Y0031113D03*
X0272827Y0157393D03*
X0282827Y0157393D03*
X0282748Y0174794D03*
X0272748Y0174794D03*
X0264008Y0176330D03*
X0264008Y0186133D03*
X0272748Y0192157D03*
X0263969Y0195936D03*
X0282748Y0192157D03*
X0233969Y0195936D03*
X0234008Y0186133D03*
X0234008Y0176330D03*
D13*
X0221134Y0170977D02*
X0221134Y0165777D01*
X0211134Y0165777D02*
X0211134Y0170977D01*
X0201134Y0170977D02*
X0201134Y0165777D01*
X0191134Y0165777D02*
X0191134Y0170977D01*
X0181134Y0170977D02*
X0181134Y0165777D01*
X0171134Y0165777D02*
X0171134Y0170977D01*
X0161134Y0170977D02*
X0161134Y0165777D01*
X0151134Y0165777D02*
X0151134Y0170977D01*
X0141134Y0170977D02*
X0141134Y0165777D01*
X0131134Y0165777D02*
X0131134Y0170977D01*
X0131134Y0140977D02*
X0131134Y0135777D01*
X0141134Y0135777D02*
X0141134Y0140977D01*
X0151134Y0140977D02*
X0151134Y0135777D01*
X0161134Y0135777D02*
X0161134Y0140977D01*
X0171134Y0140977D02*
X0171134Y0135777D01*
X0181134Y0135777D02*
X0181134Y0140977D01*
X0191134Y0140977D02*
X0191134Y0135777D01*
X0201134Y0135777D02*
X0201134Y0140977D01*
X0211134Y0140977D02*
X0211134Y0135777D01*
X0221134Y0135777D02*
X0221134Y0140977D01*
X0191173Y0117316D02*
X0191173Y0112116D01*
X0181173Y0112116D02*
X0181173Y0117316D01*
X0171173Y0117316D02*
X0171173Y0112116D01*
X0161173Y0112116D02*
X0161173Y0117316D01*
X0151173Y0117316D02*
X0151173Y0112116D01*
X0141173Y0112116D02*
X0141173Y0117316D01*
X0131173Y0117316D02*
X0131173Y0112116D01*
X0131173Y0087316D02*
X0131173Y0082116D01*
X0141173Y0082116D02*
X0141173Y0087316D01*
X0151173Y0087316D02*
X0151173Y0082116D01*
X0161173Y0082116D02*
X0161173Y0087316D01*
X0171173Y0087316D02*
X0171173Y0082116D01*
X0181173Y0082116D02*
X0181173Y0087316D01*
X0191173Y0087316D02*
X0191173Y0082116D01*
X0161094Y0068575D02*
X0161094Y0063375D01*
X0151094Y0063375D02*
X0151094Y0068575D01*
X0141094Y0068575D02*
X0141094Y0063375D01*
X0131094Y0063375D02*
X0131094Y0068575D01*
X0131094Y0038575D02*
X0131094Y0033375D01*
X0141094Y0033375D02*
X0141094Y0038575D01*
X0151094Y0038575D02*
X0151094Y0033375D01*
X0161094Y0033375D02*
X0161094Y0038575D01*
D14*
X0248378Y0114558D03*
D15*
X0258378Y0114558D03*
X0258378Y0104558D03*
X0248378Y0104558D03*
X0248378Y0094558D03*
X0258378Y0094558D03*
D16*
X0133750Y0018500D02*
X0133750Y0012500D01*
X0123750Y0012500D02*
X0123750Y0018500D01*
X0119060Y0096918D02*
X0113060Y0096918D01*
X0093460Y0096918D02*
X0087460Y0096918D01*
X0087460Y0114718D02*
X0093460Y0114718D01*
X0113060Y0114718D02*
X0119060Y0114718D01*
D17*
X0121000Y0205424D03*
X0111000Y0205424D03*
X0101000Y0205424D03*
X0131000Y0205424D03*
X0141000Y0205424D03*
X0151000Y0205424D03*
X0161000Y0205424D03*
X0171000Y0205424D03*
X0181000Y0205424D03*
X0191000Y0205424D03*
X0207000Y0205424D03*
X0217000Y0205424D03*
X0227000Y0205424D03*
X0237000Y0205424D03*
X0247000Y0205424D03*
X0257000Y0205424D03*
X0267000Y0205424D03*
X0277000Y0205424D03*
X0277000Y0015424D03*
X0267000Y0015424D03*
X0257000Y0015424D03*
X0247000Y0015424D03*
X0237000Y0015424D03*
X0227000Y0015424D03*
X0207000Y0015424D03*
X0197000Y0015424D03*
X0187000Y0015424D03*
X0177000Y0015424D03*
X0167000Y0015424D03*
X0157000Y0015424D03*
D18*
X0098471Y0016719D03*
D19*
X0108471Y0016719D03*
D20*
X0123750Y0016719D01*
X0123750Y0015500D01*
X0133750Y0015424D02*
X0133750Y0015500D01*
X0133750Y0015424D02*
X0157000Y0015424D01*
X0177000Y0015424D02*
X0177000Y0031113D01*
X0197000Y0031113D02*
X0197000Y0015424D01*
X0187000Y0015424D01*
X0187003Y0008696D01*
X0131094Y0035975D02*
X0116291Y0035975D01*
X0116291Y0035897D01*
X0116291Y0065897D02*
X0116291Y0065975D01*
X0131094Y0065975D01*
X0264008Y0166212D02*
X0272827Y0157393D01*
X0282827Y0157393D02*
X0282827Y0174794D01*
X0282748Y0174794D01*
X0282748Y0192157D01*
X0272748Y0192157D02*
X0268969Y0195936D01*
X0263969Y0195936D01*
X0264008Y0186133D02*
X0266026Y0186133D01*
X0272748Y0179411D01*
X0272748Y0174794D01*
X0264008Y0176330D02*
X0264008Y0166212D01*
X0234008Y0186133D02*
X0206401Y0186133D01*
X0191000Y0201534D01*
X0191000Y0205424D01*
X0207000Y0205424D02*
X0207000Y0200377D01*
X0211441Y0195936D01*
X0233969Y0195936D01*
X0161134Y0205424D02*
X0161134Y0168377D01*
X0151134Y0168377D02*
X0151000Y0168377D01*
X0151000Y0205424D01*
X0141134Y0205424D02*
X0141000Y0205424D01*
X0141134Y0205424D02*
X0141134Y0168377D01*
X0161000Y0205424D02*
X0161134Y0205424D01*
D21*
X0171000Y0205424D02*
X0171000Y0210373D01*
X0168681Y0212692D01*
X0102003Y0212692D01*
X0131000Y0205424D02*
X0131000Y0186252D01*
X0125266Y0180518D01*
X0116348Y0180518D01*
X0090150Y0154319D01*
X0090150Y0114718D01*
X0090460Y0114718D01*
X0077615Y0104651D02*
X0085348Y0096918D01*
X0090460Y0096918D01*
X0090460Y0048408D01*
X0102972Y0035897D01*
X0116291Y0035897D01*
X0103079Y0025795D02*
X0098464Y0021180D01*
X0098464Y0007930D01*
X0103079Y0025795D02*
X0156416Y0025795D01*
X0161094Y0030474D01*
X0161094Y0035975D01*
X0177000Y0031113D02*
X0177000Y0046330D01*
X0264157Y0046330D01*
X0284165Y0066338D01*
X0284165Y0087826D01*
X0284165Y0087983D01*
X0291528Y0094558D02*
X0291528Y0120139D01*
X0287581Y0124007D01*
X0277064Y0124046D01*
X0277025Y0140548D01*
X0277000Y0149086D01*
X0282866Y0155031D01*
X0282866Y0157393D01*
X0282827Y0157393D01*
X0234087Y0176330D02*
X0234008Y0176330D01*
X0234087Y0176330D02*
X0234087Y0178889D01*
X0201181Y0178889D01*
X0181000Y0199070D01*
X0181000Y0205424D01*
X0131134Y0168416D02*
X0121291Y0168429D01*
X0099717Y0146882D01*
X0099717Y0099472D01*
X0114433Y0084737D01*
X0131173Y0084716D01*
X0131094Y0084716D01*
X0131094Y0065975D01*
X0131094Y0057495D01*
X0142181Y0046389D01*
X0177000Y0046330D01*
X0197220Y0032081D02*
X0197000Y0031113D01*
X0197220Y0032081D02*
X0264757Y0032081D01*
X0291653Y0059070D01*
X0291528Y0094558D01*
X0258378Y0094558D01*
X0248378Y0094558D02*
X0166863Y0094558D01*
X0161173Y0088868D01*
X0161173Y0084716D01*
X0161173Y0091164D01*
X0155420Y0096918D01*
X0116060Y0096918D01*
X0113159Y0096860D01*
X0106252Y0103630D01*
X0106252Y0124895D01*
X0119852Y0138603D01*
X0131134Y0138692D01*
X0131134Y0138377D01*
X0135029Y0124164D02*
X0220898Y0124164D01*
X0220898Y0138377D01*
X0221134Y0138377D01*
X0221094Y0138180D01*
X0221094Y0124125D01*
X0277064Y0124046D01*
X0284165Y0114558D02*
X0258378Y0114558D01*
X0265307Y0114558D01*
X0275031Y0104609D02*
X0275031Y0104558D01*
X0248378Y0104558D02*
X0231646Y0104558D01*
X0206567Y0104558D01*
X0186316Y0104558D01*
X0181173Y0109701D01*
X0181173Y0114716D01*
X0191173Y0114716D02*
X0218220Y0114716D01*
X0239362Y0114716D01*
X0239362Y0114558D01*
X0248378Y0114558D01*
X0218220Y0075464D02*
X0155329Y0075464D01*
X0151094Y0071229D01*
X0151094Y0065975D01*
X0141094Y0065975D02*
X0141094Y0060759D01*
X0145760Y0056094D01*
X0206567Y0056094D01*
X0131173Y0114716D02*
X0131173Y0114718D01*
X0116060Y0114718D01*
X0131173Y0114716D02*
X0131173Y0120308D01*
X0135029Y0124164D01*
X0077615Y0104651D02*
X0077615Y0190935D01*
X0131134Y0168416D02*
X0131134Y0168377D01*
D22*
X0077615Y0190935D02*
X0076687Y0190935D01*
X0076687Y0207169D01*
X0083114Y0213596D01*
X0102003Y0213596D01*
X0102003Y0212692D01*
X0099686Y0011874D02*
X0099686Y0011873D01*
X0104167Y0007392D01*
X0098471Y0007012D02*
X0098464Y0007012D01*
X0098471Y0007012D02*
X0186516Y0007030D01*
X0187003Y0008696D01*
X0185651Y0011491D02*
X0181279Y0007119D01*
X0185651Y0011491D02*
X0185651Y0011546D01*
D23*
X0098471Y0007930D02*
X0098464Y0007930D01*
X0098471Y0007930D02*
X0098471Y0007012D01*
X0098471Y0007930D02*
X0098471Y0016719D01*
X0268299Y0104331D02*
X0275448Y0104571D01*
X0275448Y0104584D01*
X0275031Y0104558D01*
X0275116Y0104530D02*
X0268379Y0104530D01*
D24*
X0275031Y0104609D03*
X0284165Y0114558D03*
X0284165Y0087983D03*
X0275031Y0084699D03*
X0218220Y0114716D03*
X0206567Y0104558D03*
D25*
X0206567Y0104519D03*
X0218220Y0114676D03*
X0231606Y0104519D03*
X0239402Y0114716D03*
X0239441Y0131842D03*
X0231606Y0132117D03*
X0268299Y0131369D03*
X0284047Y0114401D03*
X0275116Y0104530D03*
X0268379Y0104530D03*
X0284165Y0087826D03*
X0275048Y0084679D03*
X0218220Y0075582D03*
X0206764Y0056290D03*
D26*
X0206567Y0056094D02*
X0202597Y0055851D01*
X0202636Y0055851D01*
X0206567Y0056094D01*
X0203575Y0056054D01*
X0231606Y0132117D02*
X0231635Y0143454D01*
X0227394Y0147708D01*
X0151890Y0147708D01*
X0141134Y0158464D01*
X0141134Y0168377D01*
X0151134Y0168377D02*
X0151134Y0162379D01*
X0159191Y0154322D01*
X0231967Y0154322D01*
X0239388Y0146928D01*
X0239441Y0131842D01*
X0268299Y0131369D02*
X0268299Y0160031D01*
X0166299Y0160031D01*
X0161134Y0165195D01*
X0161134Y0168377D01*
X0262669Y0168416D02*
X0262669Y0160621D01*
X0268850Y0160621D01*
X0267425Y0156094D02*
X0272787Y0156094D01*
X0267425Y0156094D02*
X0262669Y0160849D01*
X0262669Y0165306D01*
X0264126Y0165306D01*
D27*
X0239362Y0114716D03*
X0231646Y0104558D03*
D28*
X0258378Y0104558D02*
X0275031Y0104558D01*
X0275031Y0084716D02*
X0191173Y0084716D01*
X0161094Y0065975D02*
X0264285Y0066065D01*
X0275031Y0076821D01*
X0275031Y0084699D01*
X0271624Y0080751D02*
X0233430Y0080751D01*
X0233430Y0076637D01*
X0270683Y0076637D01*
X0270683Y0076687D01*
X0266027Y0076687D01*
X0266027Y0071384D01*
X0229813Y0071384D01*
X0229813Y0068064D01*
X0229764Y0068064D01*
X0229764Y0083129D01*
X0225900Y0084418D02*
X0231054Y0079264D01*
X0233677Y0079264D01*
X0235411Y0070591D02*
X0229963Y0070591D01*
X0225751Y0066379D01*
M02*
