%
M48
M72
T01C0.03200
T02C0.03937
T03C0.04000
T04C0.12598
%
T01
X89646Y38307
X109034Y33307
X119034Y33307
X129034Y33307
X139034Y33307
X139034Y63307
X129034Y63307
X119034Y63307
X109034Y63307
X89646Y58307
X109067Y80551
X119067Y80551
X129067Y80551
X139067Y80551
X149067Y80551
X159067Y80551
X169067Y80551
X169067Y110551
X159067Y110551
X149067Y110551
X139067Y110551
X129067Y110551
X119067Y110551
X109067Y110551
X89646Y105551
X89646Y85551
X45583Y94562
X35583Y94562
X89646Y132795
X109016Y127795
X119016Y127795
X129016Y127795
X139016Y127795
X149016Y127795
X159016Y127795
X169016Y127795
X179016Y127795
X189016Y127795
X199016Y127795
X199016Y157795
X189016Y157795
X179016Y157795
X169016Y157795
X159016Y157795
X149016Y157795
X139016Y157795
X129016Y157795
X119016Y157795
X109016Y157795
X89646Y152795
X89549Y175746
X59549Y175746
X165800Y178304
X175388Y185446
X185000Y192500
X195388Y185446
X185800Y178304
X205000Y192500
X250000Y192500
X260000Y192500
X260000Y174882
X250000Y174882
X250000Y157362
X260000Y157362
T02
X255000Y205000
X245000Y205000
X235000Y205000
X225000Y205000
X215000Y205000
X205000Y205000
X195000Y205000
X185000Y205000
X169000Y205000
X159000Y205000
X149000Y205000
X139000Y205000
X129000Y205000
X119000Y205000
X109000Y205000
X99000Y205000
X89000Y205000
X89000Y205000
X79000Y205000
X79000Y205000
X115000Y15000
X125000Y15000
X135000Y15000
X145000Y15000
X155000Y15000
X165000Y15000
X175000Y15000
X185000Y15000
X205000Y15000
X215000Y15000
X225000Y15000
X235000Y15000
X245000Y15000
X255000Y15000
T03
X239264Y76894
X229264Y76894
X229264Y86894
X239264Y86894
X239264Y96894
X229264Y96894
X57000Y57100
X46300Y57100
X35600Y57100
X31783Y133932
X49583Y133932
X49583Y159532
X31783Y159532
T04
X60000Y15000
X265000Y35000
X265000Y145000
X65000Y205000
M30
