%
M48
M72
T01C0.02362
T02C0.03200
T03C0.03543
T04C0.03937
T05C0.04000
T06C0.12598
%
T01
X206567Y104558
X218220Y114716
X275031Y104609
X284165Y114558
X284165Y87983
X275031Y84699
T02
X221134Y138377
X211134Y138377
X201134Y138377
X191134Y138377
X181134Y138377
X171134Y138377
X161134Y138377
X151134Y138377
X141134Y138377
X131134Y138377
X131173Y114716
X141173Y114716
X151173Y114716
X161173Y114716
X171173Y114716
X181173Y114716
X191173Y114716
X191173Y84716
X181173Y84716
X171173Y84716
X161173Y84716
X151173Y84716
X141173Y84716
X131173Y84716
X131094Y65975
X141094Y65975
X151094Y65975
X161094Y65975
X116291Y65897
X116291Y35897
X131094Y35975
X141094Y35975
X151094Y35975
X161094Y35975
X177000Y31113
X197000Y31113
X108471Y16719
X98471Y16719
X272827Y157393
X282827Y157393
X282748Y174794
X272748Y174794
X264008Y176330
X264008Y186133
X272748Y192157
X263969Y195936
X282748Y192157
X233969Y195936
X234008Y186133
X234008Y176330
X221134Y168377
X211134Y168377
X201134Y168377
X191134Y168377
X181134Y168377
X171134Y168377
X161134Y168377
X151134Y168377
X141134Y168377
X131134Y168377
T03
X218220Y114676
X206567Y104519
X231606Y104519
X231646Y104558
X239362Y114716
X239402Y114716
X239441Y131842
X231606Y132117
X268299Y131369
X284047Y114401
X275116Y104530
X268379Y104530
X284165Y87826
X275048Y84679
X218220Y75582
X206764Y56290
T04
X207000Y15424
X197000Y15424
X187000Y15424
X177000Y15424
X167000Y15424
X157000Y15424
X227000Y15424
X237000Y15424
X247000Y15424
X257000Y15424
X267000Y15424
X277000Y15424
X277000Y205424
X267000Y205424
X257000Y205424
X247000Y205424
X237000Y205424
X227000Y205424
X217000Y205424
X207000Y205424
X191000Y205424
X181000Y205424
X171000Y205424
X161000Y205424
X151000Y205424
X141000Y205424
X131000Y205424
X121000Y205424
X111000Y205424
X101000Y205424
T05
X90460Y114718
X116060Y114718
X116060Y96918
X90460Y96918
X123750Y15500
X133750Y15500
X248378Y94558
X258378Y94558
X258378Y104558
X248378Y104558
X248378Y114558
X258378Y114558
T06
X82000Y15424
X287000Y145424
X87000Y205424
M30
