G75*
%MOIN*%
%OFA0B0*%
%FSLAX25Y25*%
%IPPOS*%
%LPD*%
%AMOC8*
5,1,8,0,0,1.08239X$1,22.5*
%
%ADD10OC8,0.05200*%
%ADD11C,0.05200*%
%ADD12R,0.06000X0.06000*%
%ADD13OC8,0.06000*%
%ADD14C,0.06000*%
%ADD15OC8,0.06600*%
%ADD16OC8,0.06200*%
%ADD17C,0.06200*%
%ADD18R,0.03962X0.03962*%
%ADD19C,0.05000*%
%ADD20C,0.06600*%
%ADD21C,0.05315*%
%ADD22C,0.04000*%
%ADD23C,0.05600*%
D10*
X0116291Y0035897D03*
X0116291Y0065897D03*
X0177000Y0031113D03*
X0197000Y0031113D03*
X0272827Y0157393D03*
X0282827Y0157393D03*
X0282748Y0174794D03*
X0272748Y0174794D03*
X0264008Y0176330D03*
X0264008Y0186133D03*
X0272748Y0192157D03*
X0263969Y0195936D03*
X0282748Y0192157D03*
X0233969Y0195936D03*
X0234008Y0186133D03*
X0234008Y0176330D03*
D11*
X0221134Y0170977D02*
X0221134Y0165777D01*
X0211134Y0165777D02*
X0211134Y0170977D01*
X0201134Y0170977D02*
X0201134Y0165777D01*
X0191134Y0165777D02*
X0191134Y0170977D01*
X0181134Y0170977D02*
X0181134Y0165777D01*
X0171134Y0165777D02*
X0171134Y0170977D01*
X0161134Y0170977D02*
X0161134Y0165777D01*
X0151134Y0165777D02*
X0151134Y0170977D01*
X0141134Y0170977D02*
X0141134Y0165777D01*
X0131134Y0165777D02*
X0131134Y0170977D01*
X0131134Y0140977D02*
X0131134Y0135777D01*
X0141134Y0135777D02*
X0141134Y0140977D01*
X0151134Y0140977D02*
X0151134Y0135777D01*
X0161134Y0135777D02*
X0161134Y0140977D01*
X0171134Y0140977D02*
X0171134Y0135777D01*
X0181134Y0135777D02*
X0181134Y0140977D01*
X0191134Y0140977D02*
X0191134Y0135777D01*
X0201134Y0135777D02*
X0201134Y0140977D01*
X0211134Y0140977D02*
X0211134Y0135777D01*
X0221134Y0135777D02*
X0221134Y0140977D01*
X0191173Y0117316D02*
X0191173Y0112116D01*
X0181173Y0112116D02*
X0181173Y0117316D01*
X0171173Y0117316D02*
X0171173Y0112116D01*
X0161173Y0112116D02*
X0161173Y0117316D01*
X0151173Y0117316D02*
X0151173Y0112116D01*
X0141173Y0112116D02*
X0141173Y0117316D01*
X0131173Y0117316D02*
X0131173Y0112116D01*
X0131173Y0087316D02*
X0131173Y0082116D01*
X0141173Y0082116D02*
X0141173Y0087316D01*
X0151173Y0087316D02*
X0151173Y0082116D01*
X0161173Y0082116D02*
X0161173Y0087316D01*
X0171173Y0087316D02*
X0171173Y0082116D01*
X0181173Y0082116D02*
X0181173Y0087316D01*
X0191173Y0087316D02*
X0191173Y0082116D01*
X0161094Y0068575D02*
X0161094Y0063375D01*
X0151094Y0063375D02*
X0151094Y0068575D01*
X0141094Y0068575D02*
X0141094Y0063375D01*
X0131094Y0063375D02*
X0131094Y0068575D01*
X0131094Y0038575D02*
X0131094Y0033375D01*
X0141094Y0033375D02*
X0141094Y0038575D01*
X0151094Y0038575D02*
X0151094Y0033375D01*
X0161094Y0033375D02*
X0161094Y0038575D01*
D12*
X0248378Y0114558D03*
D13*
X0258378Y0114558D03*
X0258378Y0104558D03*
X0248378Y0104558D03*
X0248378Y0094558D03*
X0258378Y0094558D03*
D14*
X0133750Y0018500D02*
X0133750Y0012500D01*
X0123750Y0012500D02*
X0123750Y0018500D01*
X0119060Y0096918D02*
X0113060Y0096918D01*
X0093460Y0096918D02*
X0087460Y0096918D01*
X0087460Y0114718D02*
X0093460Y0114718D01*
X0113060Y0114718D02*
X0119060Y0114718D01*
D15*
X0121000Y0205424D03*
X0111000Y0205424D03*
X0101000Y0205424D03*
X0131000Y0205424D03*
X0141000Y0205424D03*
X0151000Y0205424D03*
X0161000Y0205424D03*
X0171000Y0205424D03*
X0181000Y0205424D03*
X0191000Y0205424D03*
X0207000Y0205424D03*
X0217000Y0205424D03*
X0227000Y0205424D03*
X0237000Y0205424D03*
X0247000Y0205424D03*
X0257000Y0205424D03*
X0267000Y0205424D03*
X0277000Y0205424D03*
X0277000Y0015424D03*
X0267000Y0015424D03*
X0257000Y0015424D03*
X0247000Y0015424D03*
X0237000Y0015424D03*
X0227000Y0015424D03*
X0207000Y0015424D03*
X0197000Y0015424D03*
X0187000Y0015424D03*
X0177000Y0015424D03*
X0167000Y0015424D03*
X0157000Y0015424D03*
D16*
X0098471Y0016719D03*
D17*
X0108471Y0016719D03*
D18*
X0206567Y0104558D03*
X0218220Y0114716D03*
X0275031Y0104609D03*
X0284165Y0114558D03*
X0284165Y0087983D03*
X0275031Y0084699D03*
D19*
X0275031Y0104609D01*
X0284165Y0114558D02*
X0284165Y0087983D01*
X0218220Y0075582D02*
X0218220Y0075464D01*
X0218220Y0075582D02*
X0218220Y0114676D01*
X0218220Y0114716D01*
X0206567Y0104558D02*
X0206567Y0104519D01*
X0206567Y0056094D01*
D20*
X0206764Y0056290D03*
X0218220Y0075582D03*
X0206567Y0104519D03*
X0218220Y0114676D03*
X0231606Y0104519D03*
X0239402Y0114716D03*
X0239441Y0131842D03*
X0231606Y0132117D03*
X0268299Y0131369D03*
X0284047Y0114401D03*
X0275116Y0104530D03*
X0268379Y0104530D03*
X0284165Y0087826D03*
X0275048Y0084679D03*
D21*
X0239362Y0114716D03*
X0231646Y0104558D03*
D22*
X0231606Y0132117D01*
X0239441Y0131842D02*
X0239362Y0114716D01*
D23*
X0268299Y0104331D02*
X0268299Y0131369D01*
M02*
