G75*
%MOIN*%
%OFA0B0*%
%FSLAX25Y25*%
%IPPOS*%
%LPD*%
%AMOC8*
5,1,8,0,0,1.08239X$1,22.5*
%
%ADD10OC8,0.06000*%
%ADD11C,0.06000*%
%ADD12R,0.06800X0.06800*%
%ADD13OC8,0.06800*%
%ADD14C,0.06800*%
%ADD15OC8,0.07400*%
%ADD16C,0.13398*%
%ADD17OC8,0.07000*%
%ADD18C,0.07000*%
%ADD19C,0.08200*%
D10*
X0089646Y0038307D03*
X0089646Y0058307D03*
X0089646Y0085551D03*
X0089646Y0105551D03*
X0089646Y0132795D03*
X0089646Y0152795D03*
X0089549Y0175746D03*
X0059549Y0175746D03*
X0165800Y0178304D03*
X0175388Y0185446D03*
X0185000Y0192500D03*
X0195388Y0185446D03*
X0185800Y0178304D03*
X0205000Y0192500D03*
X0250000Y0192500D03*
X0260000Y0192500D03*
X0260000Y0174882D03*
X0250000Y0174882D03*
X0250000Y0157362D03*
X0260000Y0157362D03*
D11*
X0199016Y0155195D02*
X0199016Y0160395D01*
X0189016Y0160395D02*
X0189016Y0155195D01*
X0179016Y0155195D02*
X0179016Y0160395D01*
X0169016Y0160395D02*
X0169016Y0155195D01*
X0159016Y0155195D02*
X0159016Y0160395D01*
X0149016Y0160395D02*
X0149016Y0155195D01*
X0139016Y0155195D02*
X0139016Y0160395D01*
X0129016Y0160395D02*
X0129016Y0155195D01*
X0119016Y0155195D02*
X0119016Y0160395D01*
X0109016Y0160395D02*
X0109016Y0155195D01*
X0109016Y0130395D02*
X0109016Y0125195D01*
X0119016Y0125195D02*
X0119016Y0130395D01*
X0129016Y0130395D02*
X0129016Y0125195D01*
X0139016Y0125195D02*
X0139016Y0130395D01*
X0149016Y0130395D02*
X0149016Y0125195D01*
X0159016Y0125195D02*
X0159016Y0130395D01*
X0169016Y0130395D02*
X0169016Y0125195D01*
X0179016Y0125195D02*
X0179016Y0130395D01*
X0189016Y0130395D02*
X0189016Y0125195D01*
X0199016Y0125195D02*
X0199016Y0130395D01*
X0169067Y0113151D02*
X0169067Y0107951D01*
X0159067Y0107951D02*
X0159067Y0113151D01*
X0149067Y0113151D02*
X0149067Y0107951D01*
X0139067Y0107951D02*
X0139067Y0113151D01*
X0129067Y0113151D02*
X0129067Y0107951D01*
X0119067Y0107951D02*
X0119067Y0113151D01*
X0109067Y0113151D02*
X0109067Y0107951D01*
X0109067Y0083151D02*
X0109067Y0077951D01*
X0119067Y0077951D02*
X0119067Y0083151D01*
X0129067Y0083151D02*
X0129067Y0077951D01*
X0139067Y0077951D02*
X0139067Y0083151D01*
X0149067Y0083151D02*
X0149067Y0077951D01*
X0159067Y0077951D02*
X0159067Y0083151D01*
X0169067Y0083151D02*
X0169067Y0077951D01*
X0139034Y0065907D02*
X0139034Y0060707D01*
X0129034Y0060707D02*
X0129034Y0065907D01*
X0119034Y0065907D02*
X0119034Y0060707D01*
X0109034Y0060707D02*
X0109034Y0065907D01*
X0109034Y0035907D02*
X0109034Y0030707D01*
X0119034Y0030707D02*
X0119034Y0035907D01*
X0129034Y0035907D02*
X0129034Y0030707D01*
X0139034Y0030707D02*
X0139034Y0035907D01*
D12*
X0229264Y0096894D03*
D13*
X0239264Y0096894D03*
X0239264Y0086894D03*
X0229264Y0086894D03*
X0229264Y0076894D03*
X0239264Y0076894D03*
D14*
X0049583Y0130932D02*
X0049583Y0136932D01*
X0031783Y0136932D02*
X0031783Y0130932D01*
X0031783Y0156532D02*
X0031783Y0162532D01*
X0049583Y0162532D02*
X0049583Y0156532D01*
D15*
X0079000Y0205000D03*
X0079000Y0205000D03*
X0089000Y0205000D03*
X0089000Y0205000D03*
X0099000Y0205000D03*
X0109000Y0205000D03*
X0119000Y0205000D03*
X0129000Y0205000D03*
X0139000Y0205000D03*
X0149000Y0205000D03*
X0159000Y0205000D03*
X0169000Y0205000D03*
X0185000Y0205000D03*
X0195000Y0205000D03*
X0205000Y0205000D03*
X0215000Y0205000D03*
X0225000Y0205000D03*
X0235000Y0205000D03*
X0245000Y0205000D03*
X0255000Y0205000D03*
X0255000Y0015000D03*
X0245000Y0015000D03*
X0235000Y0015000D03*
X0225000Y0015000D03*
X0215000Y0015000D03*
X0205000Y0015000D03*
X0185000Y0015000D03*
X0175000Y0015000D03*
X0165000Y0015000D03*
X0155000Y0015000D03*
X0145000Y0015000D03*
X0135000Y0015000D03*
X0125000Y0015000D03*
X0115000Y0015000D03*
D16*
X0060000Y0015000D03*
X0265000Y0035000D03*
X0265000Y0145000D03*
X0065000Y0205000D03*
D17*
X0045583Y0094562D03*
D18*
X0035583Y0094562D03*
D19*
X0035600Y0057100D03*
X0046300Y0057100D03*
X0057000Y0057100D03*
M02*
