G75*
%MOIN*%
%OFA0B0*%
%FSLAX25Y25*%
%IPPOS*%
%LPD*%
%AMOC8*
5,1,8,0,0,1.08239X$1,22.5*
%
%ADD10C,0.01200*%
%ADD11C,0.00600*%
%ADD12C,0.00500*%
%ADD13C,0.00700*%
%ADD14C,0.01000*%
%ADD15C,0.00000*%
%ADD16C,0.00300*%
D10*
X0185700Y0028613D02*
X0185700Y0031113D01*
X0185700Y0033613D01*
X0188200Y0033613D02*
X0188200Y0031113D01*
X0188200Y0028613D01*
D11*
X0188200Y0031113D02*
X0193000Y0031113D01*
X0185700Y0031113D02*
X0181000Y0031113D01*
X0173500Y0036113D02*
X0173440Y0036111D01*
X0173379Y0036106D01*
X0173320Y0036097D01*
X0173261Y0036084D01*
X0173202Y0036068D01*
X0173145Y0036048D01*
X0173090Y0036025D01*
X0173035Y0035998D01*
X0172983Y0035969D01*
X0172932Y0035936D01*
X0172883Y0035900D01*
X0172837Y0035862D01*
X0172793Y0035820D01*
X0172751Y0035776D01*
X0172713Y0035730D01*
X0172677Y0035681D01*
X0172644Y0035630D01*
X0172615Y0035578D01*
X0172588Y0035523D01*
X0172565Y0035468D01*
X0172545Y0035411D01*
X0172529Y0035352D01*
X0172516Y0035293D01*
X0172507Y0035234D01*
X0172502Y0035173D01*
X0172500Y0035113D01*
X0172500Y0027113D01*
X0172502Y0027053D01*
X0172507Y0026992D01*
X0172516Y0026933D01*
X0172529Y0026874D01*
X0172545Y0026815D01*
X0172565Y0026758D01*
X0172588Y0026703D01*
X0172615Y0026648D01*
X0172644Y0026596D01*
X0172677Y0026545D01*
X0172713Y0026496D01*
X0172751Y0026450D01*
X0172793Y0026406D01*
X0172837Y0026364D01*
X0172883Y0026326D01*
X0172932Y0026290D01*
X0172983Y0026257D01*
X0173035Y0026228D01*
X0173090Y0026201D01*
X0173145Y0026178D01*
X0173202Y0026158D01*
X0173261Y0026142D01*
X0173320Y0026129D01*
X0173379Y0026120D01*
X0173440Y0026115D01*
X0173500Y0026113D01*
X0200500Y0026113D01*
X0200560Y0026115D01*
X0200621Y0026120D01*
X0200680Y0026129D01*
X0200739Y0026142D01*
X0200798Y0026158D01*
X0200855Y0026178D01*
X0200910Y0026201D01*
X0200965Y0026228D01*
X0201017Y0026257D01*
X0201068Y0026290D01*
X0201117Y0026326D01*
X0201163Y0026364D01*
X0201207Y0026406D01*
X0201249Y0026450D01*
X0201287Y0026496D01*
X0201323Y0026545D01*
X0201356Y0026596D01*
X0201385Y0026648D01*
X0201412Y0026703D01*
X0201435Y0026758D01*
X0201455Y0026815D01*
X0201471Y0026874D01*
X0201484Y0026933D01*
X0201493Y0026992D01*
X0201498Y0027053D01*
X0201500Y0027113D01*
X0201500Y0035113D01*
X0201498Y0035173D01*
X0201493Y0035234D01*
X0201484Y0035293D01*
X0201471Y0035352D01*
X0201455Y0035411D01*
X0201435Y0035468D01*
X0201412Y0035523D01*
X0201385Y0035578D01*
X0201356Y0035630D01*
X0201323Y0035681D01*
X0201287Y0035730D01*
X0201249Y0035776D01*
X0201207Y0035820D01*
X0201163Y0035862D01*
X0201117Y0035900D01*
X0201068Y0035936D01*
X0201017Y0035969D01*
X0200965Y0035998D01*
X0200910Y0036025D01*
X0200855Y0036048D01*
X0200798Y0036068D01*
X0200739Y0036084D01*
X0200680Y0036097D01*
X0200621Y0036106D01*
X0200560Y0036111D01*
X0200500Y0036113D01*
X0173500Y0036113D01*
X0166094Y0039975D02*
X0166094Y0061975D01*
X0126094Y0061975D01*
X0126094Y0053475D01*
X0126192Y0053473D01*
X0126290Y0053467D01*
X0126388Y0053458D01*
X0126485Y0053444D01*
X0126582Y0053427D01*
X0126678Y0053406D01*
X0126773Y0053381D01*
X0126867Y0053353D01*
X0126959Y0053320D01*
X0127051Y0053285D01*
X0127141Y0053245D01*
X0127229Y0053203D01*
X0127316Y0053156D01*
X0127400Y0053107D01*
X0127483Y0053054D01*
X0127563Y0052998D01*
X0127642Y0052938D01*
X0127718Y0052876D01*
X0127791Y0052811D01*
X0127862Y0052743D01*
X0127930Y0052672D01*
X0127995Y0052599D01*
X0128057Y0052523D01*
X0128117Y0052444D01*
X0128173Y0052364D01*
X0128226Y0052281D01*
X0128275Y0052197D01*
X0128322Y0052110D01*
X0128364Y0052022D01*
X0128404Y0051932D01*
X0128439Y0051840D01*
X0128472Y0051748D01*
X0128500Y0051654D01*
X0128525Y0051559D01*
X0128546Y0051463D01*
X0128563Y0051366D01*
X0128577Y0051269D01*
X0128586Y0051171D01*
X0128592Y0051073D01*
X0128594Y0050975D01*
X0128592Y0050877D01*
X0128586Y0050779D01*
X0128577Y0050681D01*
X0128563Y0050584D01*
X0128546Y0050487D01*
X0128525Y0050391D01*
X0128500Y0050296D01*
X0128472Y0050202D01*
X0128439Y0050110D01*
X0128404Y0050018D01*
X0128364Y0049928D01*
X0128322Y0049840D01*
X0128275Y0049753D01*
X0128226Y0049669D01*
X0128173Y0049586D01*
X0128117Y0049506D01*
X0128057Y0049427D01*
X0127995Y0049351D01*
X0127930Y0049278D01*
X0127862Y0049207D01*
X0127791Y0049139D01*
X0127718Y0049074D01*
X0127642Y0049012D01*
X0127563Y0048952D01*
X0127483Y0048896D01*
X0127400Y0048843D01*
X0127316Y0048794D01*
X0127229Y0048747D01*
X0127141Y0048705D01*
X0127051Y0048665D01*
X0126959Y0048630D01*
X0126867Y0048597D01*
X0126773Y0048569D01*
X0126678Y0048544D01*
X0126582Y0048523D01*
X0126485Y0048506D01*
X0126388Y0048492D01*
X0126290Y0048483D01*
X0126192Y0048477D01*
X0126094Y0048475D01*
X0126094Y0039975D01*
X0166094Y0039975D01*
X0138750Y0018000D02*
X0136250Y0020500D01*
X0131250Y0020500D01*
X0128750Y0018000D01*
X0128750Y0013000D01*
X0131250Y0010500D01*
X0136250Y0010500D01*
X0138750Y0013000D01*
X0138750Y0018000D01*
X0128750Y0018000D02*
X0126250Y0020500D01*
X0121250Y0020500D01*
X0118750Y0018000D01*
X0118750Y0013000D01*
X0121250Y0010500D01*
X0126250Y0010500D01*
X0128750Y0013000D01*
X0113971Y0016719D02*
X0111971Y0016719D01*
X0112971Y0017719D02*
X0112971Y0015719D01*
X0092471Y0016719D02*
X0092474Y0016989D01*
X0092484Y0017259D01*
X0092501Y0017528D01*
X0092524Y0017797D01*
X0092554Y0018066D01*
X0092590Y0018333D01*
X0092633Y0018600D01*
X0092682Y0018865D01*
X0092738Y0019129D01*
X0092801Y0019392D01*
X0092869Y0019653D01*
X0092945Y0019912D01*
X0093026Y0020169D01*
X0093114Y0020425D01*
X0093208Y0020678D01*
X0093308Y0020929D01*
X0093415Y0021177D01*
X0093527Y0021422D01*
X0093646Y0021665D01*
X0093770Y0021904D01*
X0093900Y0022141D01*
X0094036Y0022374D01*
X0094178Y0022604D01*
X0094325Y0022830D01*
X0094478Y0023053D01*
X0094636Y0023272D01*
X0094799Y0023487D01*
X0094968Y0023697D01*
X0095142Y0023904D01*
X0095321Y0024106D01*
X0095504Y0024304D01*
X0095693Y0024497D01*
X0095886Y0024686D01*
X0096084Y0024869D01*
X0096286Y0025048D01*
X0096493Y0025222D01*
X0096703Y0025391D01*
X0096918Y0025554D01*
X0097137Y0025712D01*
X0097360Y0025865D01*
X0097586Y0026012D01*
X0097816Y0026154D01*
X0098049Y0026290D01*
X0098286Y0026420D01*
X0098525Y0026544D01*
X0098768Y0026663D01*
X0099013Y0026775D01*
X0099261Y0026882D01*
X0099512Y0026982D01*
X0099765Y0027076D01*
X0100021Y0027164D01*
X0100278Y0027245D01*
X0100537Y0027321D01*
X0100798Y0027389D01*
X0101061Y0027452D01*
X0101325Y0027508D01*
X0101590Y0027557D01*
X0101857Y0027600D01*
X0102124Y0027636D01*
X0102393Y0027666D01*
X0102662Y0027689D01*
X0102931Y0027706D01*
X0103201Y0027716D01*
X0103471Y0027719D01*
X0103741Y0027716D01*
X0104011Y0027706D01*
X0104280Y0027689D01*
X0104549Y0027666D01*
X0104818Y0027636D01*
X0105085Y0027600D01*
X0105352Y0027557D01*
X0105617Y0027508D01*
X0105881Y0027452D01*
X0106144Y0027389D01*
X0106405Y0027321D01*
X0106664Y0027245D01*
X0106921Y0027164D01*
X0107177Y0027076D01*
X0107430Y0026982D01*
X0107681Y0026882D01*
X0107929Y0026775D01*
X0108174Y0026663D01*
X0108417Y0026544D01*
X0108656Y0026420D01*
X0108893Y0026290D01*
X0109126Y0026154D01*
X0109356Y0026012D01*
X0109582Y0025865D01*
X0109805Y0025712D01*
X0110024Y0025554D01*
X0110239Y0025391D01*
X0110449Y0025222D01*
X0110656Y0025048D01*
X0110858Y0024869D01*
X0111056Y0024686D01*
X0111249Y0024497D01*
X0111438Y0024304D01*
X0111621Y0024106D01*
X0111800Y0023904D01*
X0111974Y0023697D01*
X0112143Y0023487D01*
X0112306Y0023272D01*
X0112464Y0023053D01*
X0112617Y0022830D01*
X0112764Y0022604D01*
X0112906Y0022374D01*
X0113042Y0022141D01*
X0113172Y0021904D01*
X0113296Y0021665D01*
X0113415Y0021422D01*
X0113527Y0021177D01*
X0113634Y0020929D01*
X0113734Y0020678D01*
X0113828Y0020425D01*
X0113916Y0020169D01*
X0113997Y0019912D01*
X0114073Y0019653D01*
X0114141Y0019392D01*
X0114204Y0019129D01*
X0114260Y0018865D01*
X0114309Y0018600D01*
X0114352Y0018333D01*
X0114388Y0018066D01*
X0114418Y0017797D01*
X0114441Y0017528D01*
X0114458Y0017259D01*
X0114468Y0016989D01*
X0114471Y0016719D01*
X0114468Y0016449D01*
X0114458Y0016179D01*
X0114441Y0015910D01*
X0114418Y0015641D01*
X0114388Y0015372D01*
X0114352Y0015105D01*
X0114309Y0014838D01*
X0114260Y0014573D01*
X0114204Y0014309D01*
X0114141Y0014046D01*
X0114073Y0013785D01*
X0113997Y0013526D01*
X0113916Y0013269D01*
X0113828Y0013013D01*
X0113734Y0012760D01*
X0113634Y0012509D01*
X0113527Y0012261D01*
X0113415Y0012016D01*
X0113296Y0011773D01*
X0113172Y0011534D01*
X0113042Y0011297D01*
X0112906Y0011064D01*
X0112764Y0010834D01*
X0112617Y0010608D01*
X0112464Y0010385D01*
X0112306Y0010166D01*
X0112143Y0009951D01*
X0111974Y0009741D01*
X0111800Y0009534D01*
X0111621Y0009332D01*
X0111438Y0009134D01*
X0111249Y0008941D01*
X0111056Y0008752D01*
X0110858Y0008569D01*
X0110656Y0008390D01*
X0110449Y0008216D01*
X0110239Y0008047D01*
X0110024Y0007884D01*
X0109805Y0007726D01*
X0109582Y0007573D01*
X0109356Y0007426D01*
X0109126Y0007284D01*
X0108893Y0007148D01*
X0108656Y0007018D01*
X0108417Y0006894D01*
X0108174Y0006775D01*
X0107929Y0006663D01*
X0107681Y0006556D01*
X0107430Y0006456D01*
X0107177Y0006362D01*
X0106921Y0006274D01*
X0106664Y0006193D01*
X0106405Y0006117D01*
X0106144Y0006049D01*
X0105881Y0005986D01*
X0105617Y0005930D01*
X0105352Y0005881D01*
X0105085Y0005838D01*
X0104818Y0005802D01*
X0104549Y0005772D01*
X0104280Y0005749D01*
X0104011Y0005732D01*
X0103741Y0005722D01*
X0103471Y0005719D01*
X0103201Y0005722D01*
X0102931Y0005732D01*
X0102662Y0005749D01*
X0102393Y0005772D01*
X0102124Y0005802D01*
X0101857Y0005838D01*
X0101590Y0005881D01*
X0101325Y0005930D01*
X0101061Y0005986D01*
X0100798Y0006049D01*
X0100537Y0006117D01*
X0100278Y0006193D01*
X0100021Y0006274D01*
X0099765Y0006362D01*
X0099512Y0006456D01*
X0099261Y0006556D01*
X0099013Y0006663D01*
X0098768Y0006775D01*
X0098525Y0006894D01*
X0098286Y0007018D01*
X0098049Y0007148D01*
X0097816Y0007284D01*
X0097586Y0007426D01*
X0097360Y0007573D01*
X0097137Y0007726D01*
X0096918Y0007884D01*
X0096703Y0008047D01*
X0096493Y0008216D01*
X0096286Y0008390D01*
X0096084Y0008569D01*
X0095886Y0008752D01*
X0095693Y0008941D01*
X0095504Y0009134D01*
X0095321Y0009332D01*
X0095142Y0009534D01*
X0094968Y0009741D01*
X0094799Y0009951D01*
X0094636Y0010166D01*
X0094478Y0010385D01*
X0094325Y0010608D01*
X0094178Y0010834D01*
X0094036Y0011064D01*
X0093900Y0011297D01*
X0093770Y0011534D01*
X0093646Y0011773D01*
X0093527Y0012016D01*
X0093415Y0012261D01*
X0093308Y0012509D01*
X0093208Y0012760D01*
X0093114Y0013013D01*
X0093026Y0013269D01*
X0092945Y0013526D01*
X0092869Y0013785D01*
X0092801Y0014046D01*
X0092738Y0014309D01*
X0092682Y0014573D01*
X0092633Y0014838D01*
X0092590Y0015105D01*
X0092554Y0015372D01*
X0092524Y0015641D01*
X0092501Y0015910D01*
X0092484Y0016179D01*
X0092474Y0016449D01*
X0092471Y0016719D01*
X0111791Y0039397D02*
X0111791Y0040897D01*
X0112291Y0041397D01*
X0112291Y0060397D01*
X0111791Y0060897D01*
X0111791Y0062397D01*
X0111793Y0062457D01*
X0111798Y0062518D01*
X0111807Y0062577D01*
X0111820Y0062636D01*
X0111836Y0062695D01*
X0111856Y0062752D01*
X0111879Y0062807D01*
X0111906Y0062862D01*
X0111935Y0062914D01*
X0111968Y0062965D01*
X0112004Y0063014D01*
X0112042Y0063060D01*
X0112084Y0063104D01*
X0112128Y0063146D01*
X0112174Y0063184D01*
X0112223Y0063220D01*
X0112274Y0063253D01*
X0112326Y0063282D01*
X0112381Y0063309D01*
X0112436Y0063332D01*
X0112493Y0063352D01*
X0112552Y0063368D01*
X0112611Y0063381D01*
X0112670Y0063390D01*
X0112731Y0063395D01*
X0112791Y0063397D01*
X0119791Y0063397D02*
X0119851Y0063395D01*
X0119912Y0063390D01*
X0119971Y0063381D01*
X0120030Y0063368D01*
X0120089Y0063352D01*
X0120146Y0063332D01*
X0120201Y0063309D01*
X0120256Y0063282D01*
X0120308Y0063253D01*
X0120359Y0063220D01*
X0120408Y0063184D01*
X0120454Y0063146D01*
X0120498Y0063104D01*
X0120540Y0063060D01*
X0120578Y0063014D01*
X0120614Y0062965D01*
X0120647Y0062914D01*
X0120676Y0062862D01*
X0120703Y0062807D01*
X0120726Y0062752D01*
X0120746Y0062695D01*
X0120762Y0062636D01*
X0120775Y0062577D01*
X0120784Y0062518D01*
X0120789Y0062457D01*
X0120791Y0062397D01*
X0120791Y0060897D01*
X0120291Y0060397D01*
X0120291Y0041397D01*
X0120791Y0040897D01*
X0120791Y0039397D01*
X0120789Y0039337D01*
X0120784Y0039276D01*
X0120775Y0039217D01*
X0120762Y0039158D01*
X0120746Y0039099D01*
X0120726Y0039042D01*
X0120703Y0038987D01*
X0120676Y0038932D01*
X0120647Y0038880D01*
X0120614Y0038829D01*
X0120578Y0038780D01*
X0120540Y0038734D01*
X0120498Y0038690D01*
X0120454Y0038648D01*
X0120408Y0038610D01*
X0120359Y0038574D01*
X0120308Y0038541D01*
X0120256Y0038512D01*
X0120201Y0038485D01*
X0120146Y0038462D01*
X0120089Y0038442D01*
X0120030Y0038426D01*
X0119971Y0038413D01*
X0119912Y0038404D01*
X0119851Y0038399D01*
X0119791Y0038397D01*
X0112791Y0038397D02*
X0112731Y0038399D01*
X0112670Y0038404D01*
X0112611Y0038413D01*
X0112552Y0038426D01*
X0112493Y0038442D01*
X0112436Y0038462D01*
X0112381Y0038485D01*
X0112326Y0038512D01*
X0112274Y0038541D01*
X0112223Y0038574D01*
X0112174Y0038610D01*
X0112128Y0038648D01*
X0112084Y0038690D01*
X0112042Y0038734D01*
X0112004Y0038780D01*
X0111968Y0038829D01*
X0111935Y0038880D01*
X0111906Y0038932D01*
X0111879Y0038987D01*
X0111856Y0039042D01*
X0111836Y0039099D01*
X0111820Y0039158D01*
X0111807Y0039217D01*
X0111798Y0039276D01*
X0111793Y0039337D01*
X0111791Y0039397D01*
X0126173Y0088216D02*
X0126173Y0095716D01*
X0126299Y0095718D01*
X0126424Y0095724D01*
X0126549Y0095734D01*
X0126674Y0095748D01*
X0126799Y0095765D01*
X0126923Y0095787D01*
X0127046Y0095812D01*
X0127168Y0095842D01*
X0127289Y0095875D01*
X0127409Y0095912D01*
X0127528Y0095952D01*
X0127645Y0095997D01*
X0127762Y0096045D01*
X0127876Y0096097D01*
X0127989Y0096152D01*
X0128100Y0096211D01*
X0128209Y0096273D01*
X0128316Y0096339D01*
X0128421Y0096408D01*
X0128524Y0096480D01*
X0128625Y0096555D01*
X0128723Y0096634D01*
X0128818Y0096716D01*
X0128911Y0096800D01*
X0129001Y0096888D01*
X0129089Y0096978D01*
X0129173Y0097071D01*
X0129255Y0097166D01*
X0129334Y0097264D01*
X0129409Y0097365D01*
X0129481Y0097468D01*
X0129550Y0097573D01*
X0129616Y0097680D01*
X0129678Y0097789D01*
X0129737Y0097900D01*
X0129792Y0098013D01*
X0129844Y0098127D01*
X0129892Y0098244D01*
X0129937Y0098361D01*
X0129977Y0098480D01*
X0130014Y0098600D01*
X0130047Y0098721D01*
X0130077Y0098843D01*
X0130102Y0098966D01*
X0130124Y0099090D01*
X0130141Y0099215D01*
X0130155Y0099340D01*
X0130165Y0099465D01*
X0130171Y0099590D01*
X0130173Y0099716D01*
X0130171Y0099842D01*
X0130165Y0099967D01*
X0130155Y0100092D01*
X0130141Y0100217D01*
X0130124Y0100342D01*
X0130102Y0100466D01*
X0130077Y0100589D01*
X0130047Y0100711D01*
X0130014Y0100832D01*
X0129977Y0100952D01*
X0129937Y0101071D01*
X0129892Y0101188D01*
X0129844Y0101305D01*
X0129792Y0101419D01*
X0129737Y0101532D01*
X0129678Y0101643D01*
X0129616Y0101752D01*
X0129550Y0101859D01*
X0129481Y0101964D01*
X0129409Y0102067D01*
X0129334Y0102168D01*
X0129255Y0102266D01*
X0129173Y0102361D01*
X0129089Y0102454D01*
X0129001Y0102544D01*
X0128911Y0102632D01*
X0128818Y0102716D01*
X0128723Y0102798D01*
X0128625Y0102877D01*
X0128524Y0102952D01*
X0128421Y0103024D01*
X0128316Y0103093D01*
X0128209Y0103159D01*
X0128100Y0103221D01*
X0127989Y0103280D01*
X0127876Y0103335D01*
X0127762Y0103387D01*
X0127645Y0103435D01*
X0127528Y0103480D01*
X0127409Y0103520D01*
X0127289Y0103557D01*
X0127168Y0103590D01*
X0127046Y0103620D01*
X0126923Y0103645D01*
X0126799Y0103667D01*
X0126674Y0103684D01*
X0126549Y0103698D01*
X0126424Y0103708D01*
X0126299Y0103714D01*
X0126173Y0103716D01*
X0126173Y0111216D01*
X0196173Y0111216D01*
X0196173Y0088216D01*
X0126173Y0088216D01*
X0124134Y0142377D02*
X0228134Y0142377D01*
X0228134Y0164377D01*
X0124134Y0164377D01*
X0124134Y0155877D01*
X0124232Y0155875D01*
X0124330Y0155869D01*
X0124428Y0155860D01*
X0124525Y0155846D01*
X0124622Y0155829D01*
X0124718Y0155808D01*
X0124813Y0155783D01*
X0124907Y0155755D01*
X0124999Y0155722D01*
X0125091Y0155687D01*
X0125181Y0155647D01*
X0125269Y0155605D01*
X0125356Y0155558D01*
X0125440Y0155509D01*
X0125523Y0155456D01*
X0125603Y0155400D01*
X0125682Y0155340D01*
X0125758Y0155278D01*
X0125831Y0155213D01*
X0125902Y0155145D01*
X0125970Y0155074D01*
X0126035Y0155001D01*
X0126097Y0154925D01*
X0126157Y0154846D01*
X0126213Y0154766D01*
X0126266Y0154683D01*
X0126315Y0154599D01*
X0126362Y0154512D01*
X0126404Y0154424D01*
X0126444Y0154334D01*
X0126479Y0154242D01*
X0126512Y0154150D01*
X0126540Y0154056D01*
X0126565Y0153961D01*
X0126586Y0153865D01*
X0126603Y0153768D01*
X0126617Y0153671D01*
X0126626Y0153573D01*
X0126632Y0153475D01*
X0126634Y0153377D01*
X0126632Y0153279D01*
X0126626Y0153181D01*
X0126617Y0153083D01*
X0126603Y0152986D01*
X0126586Y0152889D01*
X0126565Y0152793D01*
X0126540Y0152698D01*
X0126512Y0152604D01*
X0126479Y0152512D01*
X0126444Y0152420D01*
X0126404Y0152330D01*
X0126362Y0152242D01*
X0126315Y0152155D01*
X0126266Y0152071D01*
X0126213Y0151988D01*
X0126157Y0151908D01*
X0126097Y0151829D01*
X0126035Y0151753D01*
X0125970Y0151680D01*
X0125902Y0151609D01*
X0125831Y0151541D01*
X0125758Y0151476D01*
X0125682Y0151414D01*
X0125603Y0151354D01*
X0125523Y0151298D01*
X0125440Y0151245D01*
X0125356Y0151196D01*
X0125269Y0151149D01*
X0125181Y0151107D01*
X0125091Y0151067D01*
X0124999Y0151032D01*
X0124907Y0150999D01*
X0124813Y0150971D01*
X0124718Y0150946D01*
X0124622Y0150925D01*
X0124525Y0150908D01*
X0124428Y0150894D01*
X0124330Y0150885D01*
X0124232Y0150879D01*
X0124134Y0150877D01*
X0124134Y0142377D01*
X0237508Y0171830D02*
X0239008Y0171830D01*
X0239508Y0172330D01*
X0258508Y0172330D01*
X0259008Y0171830D01*
X0260508Y0171830D01*
X0260568Y0171832D01*
X0260629Y0171837D01*
X0260688Y0171846D01*
X0260747Y0171859D01*
X0260806Y0171875D01*
X0260863Y0171895D01*
X0260918Y0171918D01*
X0260973Y0171945D01*
X0261025Y0171974D01*
X0261076Y0172007D01*
X0261125Y0172043D01*
X0261171Y0172081D01*
X0261215Y0172123D01*
X0261257Y0172167D01*
X0261295Y0172213D01*
X0261331Y0172262D01*
X0261364Y0172313D01*
X0261393Y0172365D01*
X0261420Y0172420D01*
X0261443Y0172475D01*
X0261463Y0172532D01*
X0261479Y0172591D01*
X0261492Y0172650D01*
X0261501Y0172709D01*
X0261506Y0172770D01*
X0261508Y0172830D01*
X0261508Y0179830D02*
X0261506Y0179890D01*
X0261501Y0179951D01*
X0261492Y0180010D01*
X0261479Y0180069D01*
X0261463Y0180128D01*
X0261443Y0180185D01*
X0261420Y0180240D01*
X0261393Y0180295D01*
X0261364Y0180347D01*
X0261331Y0180398D01*
X0261295Y0180447D01*
X0261257Y0180493D01*
X0261215Y0180537D01*
X0261171Y0180579D01*
X0261125Y0180617D01*
X0261076Y0180653D01*
X0261025Y0180686D01*
X0260973Y0180715D01*
X0260918Y0180742D01*
X0260863Y0180765D01*
X0260806Y0180785D01*
X0260747Y0180801D01*
X0260688Y0180814D01*
X0260629Y0180823D01*
X0260568Y0180828D01*
X0260508Y0180830D01*
X0259008Y0180830D01*
X0258508Y0180330D01*
X0239508Y0180330D01*
X0239008Y0180830D01*
X0237508Y0180830D01*
X0237508Y0181633D02*
X0239008Y0181633D01*
X0239508Y0182133D01*
X0258508Y0182133D01*
X0259008Y0181633D01*
X0260508Y0181633D01*
X0260568Y0181635D01*
X0260629Y0181640D01*
X0260688Y0181649D01*
X0260747Y0181662D01*
X0260806Y0181678D01*
X0260863Y0181698D01*
X0260918Y0181721D01*
X0260973Y0181748D01*
X0261025Y0181777D01*
X0261076Y0181810D01*
X0261125Y0181846D01*
X0261171Y0181884D01*
X0261215Y0181926D01*
X0261257Y0181970D01*
X0261295Y0182016D01*
X0261331Y0182065D01*
X0261364Y0182116D01*
X0261393Y0182168D01*
X0261420Y0182223D01*
X0261443Y0182278D01*
X0261463Y0182335D01*
X0261479Y0182394D01*
X0261492Y0182453D01*
X0261501Y0182512D01*
X0261506Y0182573D01*
X0261508Y0182633D01*
X0261508Y0189633D02*
X0261506Y0189693D01*
X0261501Y0189754D01*
X0261492Y0189813D01*
X0261479Y0189872D01*
X0261463Y0189931D01*
X0261443Y0189988D01*
X0261420Y0190043D01*
X0261393Y0190098D01*
X0261364Y0190150D01*
X0261331Y0190201D01*
X0261295Y0190250D01*
X0261257Y0190296D01*
X0261215Y0190340D01*
X0261171Y0190382D01*
X0261125Y0190420D01*
X0261076Y0190456D01*
X0261025Y0190489D01*
X0260973Y0190518D01*
X0260918Y0190545D01*
X0260863Y0190568D01*
X0260806Y0190588D01*
X0260747Y0190604D01*
X0260688Y0190617D01*
X0260629Y0190626D01*
X0260568Y0190631D01*
X0260508Y0190633D01*
X0259008Y0190633D01*
X0258508Y0190133D01*
X0239508Y0190133D01*
X0239008Y0190633D01*
X0237508Y0190633D01*
X0237469Y0191436D02*
X0238969Y0191436D01*
X0239469Y0191936D01*
X0258469Y0191936D01*
X0258969Y0191436D01*
X0260469Y0191436D01*
X0260529Y0191438D01*
X0260590Y0191443D01*
X0260649Y0191452D01*
X0260708Y0191465D01*
X0260767Y0191481D01*
X0260824Y0191501D01*
X0260879Y0191524D01*
X0260934Y0191551D01*
X0260986Y0191580D01*
X0261037Y0191613D01*
X0261086Y0191649D01*
X0261132Y0191687D01*
X0261176Y0191729D01*
X0261218Y0191773D01*
X0261256Y0191819D01*
X0261292Y0191868D01*
X0261325Y0191919D01*
X0261354Y0191971D01*
X0261381Y0192026D01*
X0261404Y0192081D01*
X0261424Y0192138D01*
X0261440Y0192197D01*
X0261453Y0192256D01*
X0261462Y0192315D01*
X0261467Y0192376D01*
X0261469Y0192436D01*
X0261469Y0199436D02*
X0261467Y0199496D01*
X0261462Y0199557D01*
X0261453Y0199616D01*
X0261440Y0199675D01*
X0261424Y0199734D01*
X0261404Y0199791D01*
X0261381Y0199846D01*
X0261354Y0199901D01*
X0261325Y0199953D01*
X0261292Y0200004D01*
X0261256Y0200053D01*
X0261218Y0200099D01*
X0261176Y0200143D01*
X0261132Y0200185D01*
X0261086Y0200223D01*
X0261037Y0200259D01*
X0260986Y0200292D01*
X0260934Y0200321D01*
X0260879Y0200348D01*
X0260824Y0200371D01*
X0260767Y0200391D01*
X0260708Y0200407D01*
X0260649Y0200420D01*
X0260590Y0200429D01*
X0260529Y0200434D01*
X0260469Y0200436D01*
X0258969Y0200436D01*
X0258469Y0199936D01*
X0239469Y0199936D01*
X0238969Y0200436D01*
X0237469Y0200436D01*
X0237409Y0200434D01*
X0237348Y0200429D01*
X0237289Y0200420D01*
X0237230Y0200407D01*
X0237171Y0200391D01*
X0237114Y0200371D01*
X0237059Y0200348D01*
X0237004Y0200321D01*
X0236952Y0200292D01*
X0236901Y0200259D01*
X0236852Y0200223D01*
X0236806Y0200185D01*
X0236762Y0200143D01*
X0236720Y0200099D01*
X0236682Y0200053D01*
X0236646Y0200004D01*
X0236613Y0199953D01*
X0236584Y0199901D01*
X0236557Y0199846D01*
X0236534Y0199791D01*
X0236514Y0199734D01*
X0236498Y0199675D01*
X0236485Y0199616D01*
X0236476Y0199557D01*
X0236471Y0199496D01*
X0236469Y0199436D01*
X0236469Y0192436D02*
X0236471Y0192376D01*
X0236476Y0192315D01*
X0236485Y0192256D01*
X0236498Y0192197D01*
X0236514Y0192138D01*
X0236534Y0192081D01*
X0236557Y0192026D01*
X0236584Y0191971D01*
X0236613Y0191919D01*
X0236646Y0191868D01*
X0236682Y0191819D01*
X0236720Y0191773D01*
X0236762Y0191729D01*
X0236806Y0191687D01*
X0236852Y0191649D01*
X0236901Y0191613D01*
X0236952Y0191580D01*
X0237004Y0191551D01*
X0237059Y0191524D01*
X0237114Y0191501D01*
X0237171Y0191481D01*
X0237230Y0191465D01*
X0237289Y0191452D01*
X0237348Y0191443D01*
X0237409Y0191438D01*
X0237469Y0191436D01*
X0237508Y0190633D02*
X0237448Y0190631D01*
X0237387Y0190626D01*
X0237328Y0190617D01*
X0237269Y0190604D01*
X0237210Y0190588D01*
X0237153Y0190568D01*
X0237098Y0190545D01*
X0237043Y0190518D01*
X0236991Y0190489D01*
X0236940Y0190456D01*
X0236891Y0190420D01*
X0236845Y0190382D01*
X0236801Y0190340D01*
X0236759Y0190296D01*
X0236721Y0190250D01*
X0236685Y0190201D01*
X0236652Y0190150D01*
X0236623Y0190098D01*
X0236596Y0190043D01*
X0236573Y0189988D01*
X0236553Y0189931D01*
X0236537Y0189872D01*
X0236524Y0189813D01*
X0236515Y0189754D01*
X0236510Y0189693D01*
X0236508Y0189633D01*
X0236508Y0182633D02*
X0236510Y0182573D01*
X0236515Y0182512D01*
X0236524Y0182453D01*
X0236537Y0182394D01*
X0236553Y0182335D01*
X0236573Y0182278D01*
X0236596Y0182223D01*
X0236623Y0182168D01*
X0236652Y0182116D01*
X0236685Y0182065D01*
X0236721Y0182016D01*
X0236759Y0181970D01*
X0236801Y0181926D01*
X0236845Y0181884D01*
X0236891Y0181846D01*
X0236940Y0181810D01*
X0236991Y0181777D01*
X0237043Y0181748D01*
X0237098Y0181721D01*
X0237153Y0181698D01*
X0237210Y0181678D01*
X0237269Y0181662D01*
X0237328Y0181649D01*
X0237387Y0181640D01*
X0237448Y0181635D01*
X0237508Y0181633D01*
X0237508Y0180830D02*
X0237448Y0180828D01*
X0237387Y0180823D01*
X0237328Y0180814D01*
X0237269Y0180801D01*
X0237210Y0180785D01*
X0237153Y0180765D01*
X0237098Y0180742D01*
X0237043Y0180715D01*
X0236991Y0180686D01*
X0236940Y0180653D01*
X0236891Y0180617D01*
X0236845Y0180579D01*
X0236801Y0180537D01*
X0236759Y0180493D01*
X0236721Y0180447D01*
X0236685Y0180398D01*
X0236652Y0180347D01*
X0236623Y0180295D01*
X0236596Y0180240D01*
X0236573Y0180185D01*
X0236553Y0180128D01*
X0236537Y0180069D01*
X0236524Y0180010D01*
X0236515Y0179951D01*
X0236510Y0179890D01*
X0236508Y0179830D01*
X0236508Y0172830D02*
X0236510Y0172770D01*
X0236515Y0172709D01*
X0236524Y0172650D01*
X0236537Y0172591D01*
X0236553Y0172532D01*
X0236573Y0172475D01*
X0236596Y0172420D01*
X0236623Y0172365D01*
X0236652Y0172313D01*
X0236685Y0172262D01*
X0236721Y0172213D01*
X0236759Y0172167D01*
X0236801Y0172123D01*
X0236845Y0172081D01*
X0236891Y0172043D01*
X0236940Y0172007D01*
X0236991Y0171974D01*
X0237043Y0171945D01*
X0237098Y0171918D01*
X0237153Y0171895D01*
X0237210Y0171875D01*
X0237269Y0171859D01*
X0237328Y0171846D01*
X0237387Y0171837D01*
X0237448Y0171832D01*
X0237508Y0171830D01*
X0277748Y0180794D02*
X0277902Y0180792D01*
X0278056Y0180786D01*
X0278210Y0180776D01*
X0278364Y0180762D01*
X0278517Y0180745D01*
X0278669Y0180723D01*
X0278821Y0180697D01*
X0278973Y0180668D01*
X0279123Y0180634D01*
X0279273Y0180597D01*
X0279421Y0180556D01*
X0279569Y0180511D01*
X0279715Y0180462D01*
X0279860Y0180410D01*
X0280003Y0180354D01*
X0280146Y0180294D01*
X0280286Y0180231D01*
X0280425Y0180164D01*
X0280562Y0180093D01*
X0280697Y0180019D01*
X0280830Y0179942D01*
X0280962Y0179861D01*
X0281091Y0179777D01*
X0281218Y0179689D01*
X0281342Y0179598D01*
X0281464Y0179505D01*
X0281584Y0179407D01*
X0281701Y0179307D01*
X0281816Y0179204D01*
X0281928Y0179098D01*
X0282037Y0178990D01*
X0282143Y0178878D01*
X0282247Y0178764D01*
X0282347Y0178647D01*
X0282445Y0178528D01*
X0282539Y0178406D01*
X0282630Y0178281D01*
X0277748Y0168794D02*
X0277596Y0168796D01*
X0277445Y0168802D01*
X0277294Y0168811D01*
X0277142Y0168825D01*
X0276992Y0168842D01*
X0276842Y0168863D01*
X0276692Y0168888D01*
X0276543Y0168916D01*
X0276395Y0168949D01*
X0276248Y0168985D01*
X0276101Y0169024D01*
X0275956Y0169068D01*
X0275812Y0169115D01*
X0275669Y0169166D01*
X0275528Y0169220D01*
X0275387Y0169278D01*
X0275249Y0169339D01*
X0275112Y0169404D01*
X0274976Y0169473D01*
X0274843Y0169544D01*
X0274711Y0169619D01*
X0274581Y0169698D01*
X0274454Y0169779D01*
X0274328Y0169864D01*
X0274204Y0169952D01*
X0274083Y0170043D01*
X0273964Y0170137D01*
X0273848Y0170235D01*
X0273734Y0170335D01*
X0273622Y0170437D01*
X0273514Y0170543D01*
X0273408Y0170651D01*
X0273304Y0170762D01*
X0273204Y0170876D01*
X0273106Y0170992D01*
X0273012Y0171111D01*
X0277748Y0168794D02*
X0277900Y0168796D01*
X0278051Y0168802D01*
X0278202Y0168811D01*
X0278354Y0168825D01*
X0278504Y0168842D01*
X0278654Y0168863D01*
X0278804Y0168888D01*
X0278953Y0168916D01*
X0279101Y0168949D01*
X0279248Y0168985D01*
X0279395Y0169024D01*
X0279540Y0169068D01*
X0279684Y0169115D01*
X0279827Y0169166D01*
X0279968Y0169220D01*
X0280109Y0169278D01*
X0280247Y0169339D01*
X0280384Y0169404D01*
X0280520Y0169473D01*
X0280653Y0169544D01*
X0280785Y0169619D01*
X0280915Y0169698D01*
X0281042Y0169779D01*
X0281168Y0169864D01*
X0281292Y0169952D01*
X0281413Y0170043D01*
X0281532Y0170137D01*
X0281648Y0170235D01*
X0281762Y0170335D01*
X0281874Y0170437D01*
X0281982Y0170543D01*
X0282088Y0170651D01*
X0282192Y0170762D01*
X0282292Y0170876D01*
X0282390Y0170992D01*
X0282484Y0171111D01*
X0277748Y0180794D02*
X0277598Y0180792D01*
X0277447Y0180786D01*
X0277297Y0180777D01*
X0277148Y0180764D01*
X0276998Y0180747D01*
X0276849Y0180726D01*
X0276701Y0180702D01*
X0276553Y0180674D01*
X0276406Y0180642D01*
X0276260Y0180607D01*
X0276115Y0180567D01*
X0275971Y0180525D01*
X0275828Y0180478D01*
X0275686Y0180428D01*
X0275545Y0180375D01*
X0275406Y0180318D01*
X0275268Y0180258D01*
X0275132Y0180194D01*
X0274998Y0180127D01*
X0274865Y0180056D01*
X0274734Y0179982D01*
X0274605Y0179905D01*
X0274478Y0179824D01*
X0274353Y0179741D01*
X0274230Y0179654D01*
X0274109Y0179565D01*
X0273991Y0179472D01*
X0273875Y0179376D01*
X0273761Y0179278D01*
X0273650Y0179177D01*
X0273541Y0179072D01*
X0273436Y0178966D01*
X0273332Y0178856D01*
X0273232Y0178744D01*
X0273134Y0178630D01*
X0273040Y0178513D01*
X0272948Y0178394D01*
X0282630Y0195644D02*
X0282539Y0195769D01*
X0282445Y0195891D01*
X0282347Y0196010D01*
X0282247Y0196127D01*
X0282143Y0196241D01*
X0282037Y0196353D01*
X0281928Y0196461D01*
X0281816Y0196567D01*
X0281701Y0196670D01*
X0281584Y0196770D01*
X0281464Y0196868D01*
X0281342Y0196961D01*
X0281218Y0197052D01*
X0281091Y0197140D01*
X0280962Y0197224D01*
X0280830Y0197305D01*
X0280697Y0197382D01*
X0280562Y0197456D01*
X0280425Y0197527D01*
X0280286Y0197594D01*
X0280146Y0197657D01*
X0280003Y0197717D01*
X0279860Y0197773D01*
X0279715Y0197825D01*
X0279569Y0197874D01*
X0279421Y0197919D01*
X0279273Y0197960D01*
X0279123Y0197997D01*
X0278973Y0198031D01*
X0278821Y0198060D01*
X0278669Y0198086D01*
X0278517Y0198108D01*
X0278364Y0198125D01*
X0278210Y0198139D01*
X0278056Y0198149D01*
X0277902Y0198155D01*
X0277748Y0198157D01*
X0273012Y0188474D02*
X0273106Y0188355D01*
X0273204Y0188239D01*
X0273304Y0188125D01*
X0273408Y0188014D01*
X0273514Y0187906D01*
X0273622Y0187800D01*
X0273734Y0187698D01*
X0273848Y0187598D01*
X0273964Y0187500D01*
X0274083Y0187406D01*
X0274204Y0187315D01*
X0274328Y0187227D01*
X0274454Y0187142D01*
X0274581Y0187061D01*
X0274711Y0186982D01*
X0274843Y0186907D01*
X0274976Y0186836D01*
X0275112Y0186767D01*
X0275249Y0186702D01*
X0275387Y0186641D01*
X0275528Y0186583D01*
X0275669Y0186529D01*
X0275812Y0186478D01*
X0275956Y0186431D01*
X0276101Y0186387D01*
X0276248Y0186348D01*
X0276395Y0186312D01*
X0276543Y0186279D01*
X0276692Y0186251D01*
X0276842Y0186226D01*
X0276992Y0186205D01*
X0277142Y0186188D01*
X0277294Y0186174D01*
X0277445Y0186165D01*
X0277596Y0186159D01*
X0277748Y0186157D01*
X0272948Y0195757D02*
X0273040Y0195876D01*
X0273134Y0195993D01*
X0273232Y0196107D01*
X0273332Y0196219D01*
X0273436Y0196329D01*
X0273541Y0196435D01*
X0273650Y0196540D01*
X0273761Y0196641D01*
X0273875Y0196739D01*
X0273991Y0196835D01*
X0274109Y0196928D01*
X0274230Y0197017D01*
X0274353Y0197104D01*
X0274478Y0197187D01*
X0274605Y0197268D01*
X0274734Y0197345D01*
X0274865Y0197419D01*
X0274998Y0197490D01*
X0275132Y0197557D01*
X0275268Y0197621D01*
X0275406Y0197681D01*
X0275545Y0197738D01*
X0275686Y0197791D01*
X0275828Y0197841D01*
X0275971Y0197888D01*
X0276115Y0197930D01*
X0276260Y0197970D01*
X0276406Y0198005D01*
X0276553Y0198037D01*
X0276701Y0198065D01*
X0276849Y0198089D01*
X0276998Y0198110D01*
X0277148Y0198127D01*
X0277297Y0198140D01*
X0277447Y0198149D01*
X0277598Y0198155D01*
X0277748Y0198157D01*
X0282484Y0188474D02*
X0282390Y0188355D01*
X0282292Y0188239D01*
X0282192Y0188125D01*
X0282088Y0188014D01*
X0281982Y0187906D01*
X0281874Y0187800D01*
X0281762Y0187698D01*
X0281648Y0187598D01*
X0281532Y0187500D01*
X0281413Y0187406D01*
X0281292Y0187315D01*
X0281168Y0187227D01*
X0281042Y0187142D01*
X0280915Y0187061D01*
X0280785Y0186982D01*
X0280653Y0186907D01*
X0280520Y0186836D01*
X0280384Y0186767D01*
X0280247Y0186702D01*
X0280109Y0186641D01*
X0279968Y0186583D01*
X0279827Y0186529D01*
X0279684Y0186478D01*
X0279540Y0186431D01*
X0279395Y0186387D01*
X0279248Y0186348D01*
X0279101Y0186312D01*
X0278953Y0186279D01*
X0278804Y0186251D01*
X0278654Y0186226D01*
X0278504Y0186205D01*
X0278354Y0186188D01*
X0278202Y0186174D01*
X0278051Y0186165D01*
X0277900Y0186159D01*
X0277748Y0186157D01*
X0273091Y0153710D02*
X0273185Y0153591D01*
X0273283Y0153475D01*
X0273383Y0153361D01*
X0273487Y0153250D01*
X0273593Y0153142D01*
X0273701Y0153036D01*
X0273813Y0152934D01*
X0273927Y0152834D01*
X0274043Y0152736D01*
X0274162Y0152642D01*
X0274283Y0152551D01*
X0274407Y0152463D01*
X0274533Y0152378D01*
X0274660Y0152297D01*
X0274790Y0152218D01*
X0274922Y0152143D01*
X0275055Y0152072D01*
X0275191Y0152003D01*
X0275328Y0151938D01*
X0275466Y0151877D01*
X0275607Y0151819D01*
X0275748Y0151765D01*
X0275891Y0151714D01*
X0276035Y0151667D01*
X0276180Y0151623D01*
X0276327Y0151584D01*
X0276474Y0151548D01*
X0276622Y0151515D01*
X0276771Y0151487D01*
X0276921Y0151462D01*
X0277071Y0151441D01*
X0277221Y0151424D01*
X0277373Y0151410D01*
X0277524Y0151401D01*
X0277675Y0151395D01*
X0277827Y0151393D01*
X0273027Y0160993D02*
X0273119Y0161112D01*
X0273213Y0161229D01*
X0273311Y0161343D01*
X0273411Y0161455D01*
X0273515Y0161565D01*
X0273620Y0161671D01*
X0273729Y0161776D01*
X0273840Y0161877D01*
X0273954Y0161975D01*
X0274070Y0162071D01*
X0274188Y0162164D01*
X0274309Y0162253D01*
X0274432Y0162340D01*
X0274557Y0162423D01*
X0274684Y0162504D01*
X0274813Y0162581D01*
X0274944Y0162655D01*
X0275077Y0162726D01*
X0275211Y0162793D01*
X0275347Y0162857D01*
X0275485Y0162917D01*
X0275624Y0162974D01*
X0275765Y0163027D01*
X0275907Y0163077D01*
X0276050Y0163124D01*
X0276194Y0163166D01*
X0276339Y0163206D01*
X0276485Y0163241D01*
X0276632Y0163273D01*
X0276780Y0163301D01*
X0276928Y0163325D01*
X0277077Y0163346D01*
X0277227Y0163363D01*
X0277376Y0163376D01*
X0277526Y0163385D01*
X0277677Y0163391D01*
X0277827Y0163393D01*
X0282563Y0153710D02*
X0282469Y0153591D01*
X0282371Y0153475D01*
X0282271Y0153361D01*
X0282167Y0153250D01*
X0282061Y0153142D01*
X0281953Y0153036D01*
X0281841Y0152934D01*
X0281727Y0152834D01*
X0281611Y0152736D01*
X0281492Y0152642D01*
X0281371Y0152551D01*
X0281247Y0152463D01*
X0281121Y0152378D01*
X0280994Y0152297D01*
X0280864Y0152218D01*
X0280732Y0152143D01*
X0280599Y0152072D01*
X0280463Y0152003D01*
X0280326Y0151938D01*
X0280188Y0151877D01*
X0280047Y0151819D01*
X0279906Y0151765D01*
X0279763Y0151714D01*
X0279619Y0151667D01*
X0279474Y0151623D01*
X0279327Y0151584D01*
X0279180Y0151548D01*
X0279032Y0151515D01*
X0278883Y0151487D01*
X0278733Y0151462D01*
X0278583Y0151441D01*
X0278433Y0151424D01*
X0278281Y0151410D01*
X0278130Y0151401D01*
X0277979Y0151395D01*
X0277827Y0151393D01*
X0282709Y0160880D02*
X0282618Y0161005D01*
X0282524Y0161127D01*
X0282426Y0161246D01*
X0282326Y0161363D01*
X0282222Y0161477D01*
X0282116Y0161589D01*
X0282007Y0161697D01*
X0281895Y0161803D01*
X0281780Y0161906D01*
X0281663Y0162006D01*
X0281543Y0162104D01*
X0281421Y0162197D01*
X0281297Y0162288D01*
X0281170Y0162376D01*
X0281041Y0162460D01*
X0280909Y0162541D01*
X0280776Y0162618D01*
X0280641Y0162692D01*
X0280504Y0162763D01*
X0280365Y0162830D01*
X0280225Y0162893D01*
X0280082Y0162953D01*
X0279939Y0163009D01*
X0279794Y0163061D01*
X0279648Y0163110D01*
X0279500Y0163155D01*
X0279352Y0163196D01*
X0279202Y0163233D01*
X0279052Y0163267D01*
X0278900Y0163296D01*
X0278748Y0163322D01*
X0278596Y0163344D01*
X0278443Y0163361D01*
X0278289Y0163375D01*
X0278135Y0163385D01*
X0277981Y0163391D01*
X0277827Y0163393D01*
D12*
X0285577Y0163647D02*
X0285577Y0159143D01*
X0288579Y0159143D01*
X0290181Y0159143D02*
X0293183Y0159143D01*
X0294785Y0159143D02*
X0297037Y0159143D01*
X0297787Y0159893D01*
X0297787Y0162896D01*
X0297037Y0163647D01*
X0294785Y0163647D01*
X0294785Y0159143D01*
X0291682Y0161395D02*
X0290181Y0161395D01*
X0290181Y0163647D02*
X0290181Y0159143D01*
X0290181Y0163647D02*
X0293183Y0163647D01*
X0299389Y0162896D02*
X0300139Y0163647D01*
X0301640Y0163647D01*
X0302391Y0162896D01*
X0302391Y0162145D01*
X0301640Y0161395D01*
X0302391Y0160644D01*
X0302391Y0159893D01*
X0301640Y0159143D01*
X0300139Y0159143D01*
X0299389Y0159893D01*
X0300890Y0161395D02*
X0301640Y0161395D01*
X0302312Y0176544D02*
X0299310Y0176544D01*
X0302312Y0179547D01*
X0302312Y0180298D01*
X0301562Y0181048D01*
X0300060Y0181048D01*
X0299310Y0180298D01*
X0297708Y0180298D02*
X0296958Y0181048D01*
X0294706Y0181048D01*
X0294706Y0176544D01*
X0296958Y0176544D01*
X0297708Y0177295D01*
X0297708Y0180298D01*
X0293105Y0181048D02*
X0290102Y0181048D01*
X0290102Y0176544D01*
X0293105Y0176544D01*
X0291603Y0178796D02*
X0290102Y0178796D01*
X0288501Y0176544D02*
X0285498Y0176544D01*
X0285498Y0181048D01*
X0285498Y0193907D02*
X0288501Y0193907D01*
X0290102Y0193907D02*
X0293105Y0193907D01*
X0294706Y0193907D02*
X0296958Y0193907D01*
X0297708Y0194657D01*
X0297708Y0197660D01*
X0296958Y0198410D01*
X0294706Y0198410D01*
X0294706Y0193907D01*
X0291603Y0196158D02*
X0290102Y0196158D01*
X0290102Y0193907D02*
X0290102Y0198410D01*
X0293105Y0198410D01*
X0299310Y0196909D02*
X0300811Y0198410D01*
X0300811Y0193907D01*
X0299310Y0193907D02*
X0302312Y0193907D01*
X0285498Y0193907D02*
X0285498Y0198410D01*
X0246864Y0195636D02*
X0246864Y0194885D01*
X0246114Y0194135D01*
X0246864Y0193384D01*
X0246864Y0192634D01*
X0246114Y0191883D01*
X0244612Y0191883D01*
X0243862Y0192634D01*
X0242260Y0191883D02*
X0240759Y0193384D01*
X0241510Y0193384D02*
X0239258Y0193384D01*
X0239258Y0191883D02*
X0239258Y0196387D01*
X0241510Y0196387D01*
X0242260Y0195636D01*
X0242260Y0194135D01*
X0241510Y0193384D01*
X0243862Y0195636D02*
X0244612Y0196387D01*
X0246114Y0196387D01*
X0246864Y0195636D01*
X0246114Y0194135D02*
X0245363Y0194135D01*
X0246114Y0186584D02*
X0243862Y0184332D01*
X0246864Y0184332D01*
X0246114Y0182080D02*
X0246114Y0186584D01*
X0242260Y0185833D02*
X0242260Y0184332D01*
X0241510Y0183581D01*
X0239258Y0183581D01*
X0240759Y0183581D02*
X0242260Y0182080D01*
X0239258Y0182080D02*
X0239258Y0186584D01*
X0241510Y0186584D01*
X0242260Y0185833D01*
X0242221Y0201686D02*
X0240720Y0203187D01*
X0241470Y0203187D02*
X0239219Y0203187D01*
X0239219Y0201686D02*
X0239219Y0206190D01*
X0241470Y0206190D01*
X0242221Y0205439D01*
X0242221Y0203938D01*
X0241470Y0203187D01*
X0243822Y0201686D02*
X0246825Y0204689D01*
X0246825Y0205439D01*
X0246074Y0206190D01*
X0244573Y0206190D01*
X0243822Y0205439D01*
X0243822Y0201686D02*
X0246825Y0201686D01*
X0240628Y0118207D02*
X0240628Y0115204D01*
X0240628Y0116705D02*
X0236124Y0116705D01*
X0237625Y0115204D01*
X0236875Y0113603D02*
X0238376Y0113603D01*
X0239127Y0112852D01*
X0239127Y0110600D01*
X0240628Y0110600D02*
X0236124Y0110600D01*
X0236124Y0112852D01*
X0236875Y0113603D01*
X0236875Y0108999D02*
X0236124Y0108248D01*
X0236124Y0106747D01*
X0236875Y0105996D01*
X0237625Y0105996D01*
X0238376Y0106747D01*
X0238376Y0108248D01*
X0239127Y0108999D01*
X0239877Y0108999D01*
X0240628Y0108248D01*
X0240628Y0106747D01*
X0239877Y0105996D01*
X0239877Y0104395D02*
X0240628Y0103644D01*
X0240628Y0102143D01*
X0239877Y0101392D01*
X0236875Y0101392D01*
X0236124Y0102143D01*
X0236124Y0103644D01*
X0236875Y0104395D01*
X0236124Y0099824D02*
X0236124Y0098323D01*
X0236124Y0099074D02*
X0240628Y0099074D01*
X0240628Y0099824D02*
X0240628Y0098323D01*
X0124423Y0098641D02*
X0124423Y0095639D01*
X0121421Y0098641D01*
X0120670Y0098641D01*
X0119919Y0097891D01*
X0119919Y0096389D01*
X0120670Y0095639D01*
X0120670Y0094037D02*
X0119919Y0093287D01*
X0119919Y0091785D01*
X0120670Y0091035D01*
X0123673Y0091035D01*
X0124423Y0091785D01*
X0124423Y0093287D01*
X0123673Y0094037D01*
X0124423Y0089467D02*
X0124423Y0087966D01*
X0124423Y0088716D02*
X0119919Y0088716D01*
X0119919Y0087966D02*
X0119919Y0089467D01*
X0124744Y0051901D02*
X0124744Y0048899D01*
X0124744Y0050400D02*
X0120241Y0050400D01*
X0121742Y0048899D01*
X0120991Y0047297D02*
X0120241Y0046547D01*
X0120241Y0045045D01*
X0120991Y0044295D01*
X0123994Y0044295D01*
X0124744Y0045045D01*
X0124744Y0046547D01*
X0123994Y0047297D01*
X0124744Y0042727D02*
X0124744Y0041225D01*
X0124744Y0041976D02*
X0120241Y0041976D01*
X0120241Y0041225D02*
X0120241Y0042727D01*
X0110541Y0044149D02*
X0109040Y0042648D01*
X0109040Y0043399D02*
X0109040Y0041147D01*
X0110541Y0041147D02*
X0106037Y0041147D01*
X0106037Y0043399D01*
X0106788Y0044149D01*
X0108289Y0044149D01*
X0109040Y0043399D01*
X0107539Y0045751D02*
X0106037Y0047252D01*
X0110541Y0047252D01*
X0110541Y0045751D02*
X0110541Y0048753D01*
X0120201Y0027454D02*
X0121702Y0027454D01*
X0120952Y0027454D02*
X0120952Y0023701D01*
X0120201Y0022950D01*
X0119450Y0022950D01*
X0118700Y0023701D01*
X0123304Y0024451D02*
X0125556Y0024451D01*
X0126306Y0025202D01*
X0126306Y0026703D01*
X0125556Y0027454D01*
X0123304Y0027454D01*
X0123304Y0022950D01*
X0127908Y0022950D02*
X0130910Y0022950D01*
X0129409Y0022950D02*
X0129409Y0027454D01*
X0127908Y0025953D01*
X0090118Y0010473D02*
X0090118Y0005969D01*
X0088617Y0005969D02*
X0091619Y0005969D01*
X0087015Y0006720D02*
X0086265Y0005969D01*
X0084764Y0005969D01*
X0084013Y0006720D01*
X0084013Y0009722D01*
X0084764Y0010473D01*
X0086265Y0010473D01*
X0087015Y0009722D01*
X0088617Y0008972D02*
X0090118Y0010473D01*
X0191542Y0020613D02*
X0192293Y0019863D01*
X0193794Y0019863D01*
X0194545Y0020613D01*
X0196146Y0020613D02*
X0196897Y0019863D01*
X0198398Y0019863D01*
X0199149Y0020613D01*
X0199149Y0021364D01*
X0198398Y0022115D01*
X0197647Y0022115D01*
X0198398Y0022115D02*
X0199149Y0022865D01*
X0199149Y0023616D01*
X0198398Y0024367D01*
X0196897Y0024367D01*
X0196146Y0023616D01*
X0194545Y0023616D02*
X0193794Y0024367D01*
X0192293Y0024367D01*
X0191542Y0023616D01*
X0191542Y0020613D01*
D13*
X0122584Y0143727D02*
X0122584Y0145829D01*
X0122584Y0144778D02*
X0116278Y0144778D01*
X0116278Y0143727D02*
X0116278Y0145829D01*
X0117329Y0148024D02*
X0121533Y0148024D01*
X0122584Y0149075D01*
X0122584Y0151177D01*
X0121533Y0152228D01*
X0121533Y0154469D02*
X0122584Y0155520D01*
X0122584Y0157622D01*
X0121533Y0158673D01*
X0120482Y0158673D01*
X0119431Y0157622D01*
X0119431Y0156571D01*
X0119431Y0157622D02*
X0118380Y0158673D01*
X0117329Y0158673D01*
X0116278Y0157622D01*
X0116278Y0155520D01*
X0117329Y0154469D01*
X0117329Y0152228D02*
X0116278Y0151177D01*
X0116278Y0149075D01*
X0117329Y0148024D01*
D14*
X0243378Y0119558D02*
X0243378Y0089558D01*
X0263378Y0089558D01*
X0263378Y0119558D01*
X0243378Y0119558D01*
X0270881Y0153424D02*
X0270980Y0153255D01*
X0271084Y0153089D01*
X0271191Y0152925D01*
X0271302Y0152764D01*
X0271417Y0152606D01*
X0271536Y0152451D01*
X0271659Y0152298D01*
X0271785Y0152149D01*
X0271915Y0152003D01*
X0272049Y0151860D01*
X0272186Y0151720D01*
X0272326Y0151584D01*
X0272470Y0151451D01*
X0272617Y0151322D01*
X0272767Y0151196D01*
X0272920Y0151075D01*
X0273076Y0150956D01*
X0273235Y0150842D01*
X0273396Y0150732D01*
X0273561Y0150626D01*
X0273727Y0150523D01*
X0273897Y0150425D01*
X0274068Y0150331D01*
X0274242Y0150241D01*
X0274418Y0150156D01*
X0274596Y0150074D01*
X0274776Y0149998D01*
X0274958Y0149925D01*
X0275141Y0149857D01*
X0275326Y0149794D01*
X0275513Y0149735D01*
X0275701Y0149681D01*
X0275890Y0149631D01*
X0276080Y0149586D01*
X0276272Y0149546D01*
X0276464Y0149510D01*
X0276657Y0149479D01*
X0276851Y0149453D01*
X0277046Y0149431D01*
X0277241Y0149415D01*
X0277436Y0149403D01*
X0277632Y0149395D01*
X0277827Y0149393D01*
X0270768Y0161158D02*
X0270861Y0161326D01*
X0270957Y0161492D01*
X0271057Y0161656D01*
X0271162Y0161817D01*
X0271270Y0161976D01*
X0271382Y0162132D01*
X0271498Y0162286D01*
X0271617Y0162436D01*
X0271740Y0162584D01*
X0271866Y0162729D01*
X0271996Y0162870D01*
X0272129Y0163009D01*
X0272266Y0163144D01*
X0272406Y0163276D01*
X0272548Y0163404D01*
X0272694Y0163529D01*
X0272843Y0163651D01*
X0272995Y0163769D01*
X0273149Y0163883D01*
X0273307Y0163993D01*
X0273466Y0164100D01*
X0273629Y0164203D01*
X0273794Y0164302D01*
X0273961Y0164397D01*
X0274130Y0164487D01*
X0274301Y0164574D01*
X0274475Y0164657D01*
X0274650Y0164735D01*
X0274828Y0164809D01*
X0275007Y0164879D01*
X0275187Y0164945D01*
X0275369Y0165006D01*
X0275553Y0165063D01*
X0275738Y0165115D01*
X0275924Y0165163D01*
X0276111Y0165207D01*
X0276299Y0165246D01*
X0276488Y0165280D01*
X0276678Y0165310D01*
X0276868Y0165335D01*
X0277059Y0165356D01*
X0277251Y0165372D01*
X0277443Y0165384D01*
X0277635Y0165391D01*
X0277827Y0165393D01*
X0283934Y0152225D02*
X0283807Y0152079D01*
X0283678Y0151937D01*
X0283544Y0151797D01*
X0283408Y0151661D01*
X0283268Y0151528D01*
X0283125Y0151398D01*
X0282978Y0151272D01*
X0282829Y0151150D01*
X0282677Y0151031D01*
X0282522Y0150916D01*
X0282365Y0150804D01*
X0282205Y0150697D01*
X0282042Y0150593D01*
X0281876Y0150494D01*
X0281709Y0150398D01*
X0281539Y0150306D01*
X0281367Y0150219D01*
X0281193Y0150135D01*
X0281017Y0150056D01*
X0280839Y0149982D01*
X0280659Y0149911D01*
X0280478Y0149845D01*
X0280295Y0149783D01*
X0280111Y0149726D01*
X0279925Y0149673D01*
X0279738Y0149625D01*
X0279550Y0149581D01*
X0279361Y0149542D01*
X0279171Y0149507D01*
X0278981Y0149477D01*
X0278790Y0149451D01*
X0278598Y0149430D01*
X0278405Y0149414D01*
X0278213Y0149402D01*
X0278020Y0149395D01*
X0277827Y0149393D01*
X0283973Y0162515D02*
X0283846Y0162663D01*
X0283716Y0162808D01*
X0283583Y0162949D01*
X0283446Y0163088D01*
X0283306Y0163223D01*
X0283162Y0163354D01*
X0283015Y0163482D01*
X0282866Y0163607D01*
X0282713Y0163728D01*
X0282558Y0163845D01*
X0282399Y0163958D01*
X0282238Y0164067D01*
X0282074Y0164172D01*
X0281908Y0164274D01*
X0281739Y0164371D01*
X0281569Y0164464D01*
X0281395Y0164553D01*
X0281220Y0164638D01*
X0281043Y0164718D01*
X0280864Y0164794D01*
X0280683Y0164866D01*
X0280500Y0164933D01*
X0280316Y0164996D01*
X0280130Y0165054D01*
X0279943Y0165108D01*
X0279755Y0165157D01*
X0279565Y0165202D01*
X0279375Y0165242D01*
X0279183Y0165277D01*
X0278991Y0165308D01*
X0278798Y0165334D01*
X0278604Y0165355D01*
X0278410Y0165372D01*
X0278216Y0165384D01*
X0278022Y0165391D01*
X0277827Y0165393D01*
X0270689Y0178559D02*
X0270782Y0178727D01*
X0270878Y0178893D01*
X0270978Y0179057D01*
X0271083Y0179218D01*
X0271191Y0179377D01*
X0271303Y0179533D01*
X0271419Y0179687D01*
X0271538Y0179837D01*
X0271661Y0179985D01*
X0271787Y0180130D01*
X0271917Y0180271D01*
X0272050Y0180410D01*
X0272187Y0180545D01*
X0272327Y0180677D01*
X0272469Y0180805D01*
X0272615Y0180930D01*
X0272764Y0181052D01*
X0272916Y0181170D01*
X0273070Y0181284D01*
X0273228Y0181394D01*
X0273387Y0181501D01*
X0273550Y0181604D01*
X0273715Y0181703D01*
X0273882Y0181798D01*
X0274051Y0181888D01*
X0274222Y0181975D01*
X0274396Y0182058D01*
X0274571Y0182136D01*
X0274749Y0182210D01*
X0274928Y0182280D01*
X0275108Y0182346D01*
X0275290Y0182407D01*
X0275474Y0182464D01*
X0275659Y0182516D01*
X0275845Y0182564D01*
X0276032Y0182608D01*
X0276220Y0182647D01*
X0276409Y0182681D01*
X0276599Y0182711D01*
X0276789Y0182736D01*
X0276980Y0182757D01*
X0277172Y0182773D01*
X0277364Y0182785D01*
X0277556Y0182792D01*
X0277748Y0182794D01*
X0270802Y0170825D02*
X0270901Y0170656D01*
X0271005Y0170490D01*
X0271112Y0170326D01*
X0271223Y0170165D01*
X0271338Y0170007D01*
X0271457Y0169852D01*
X0271580Y0169699D01*
X0271706Y0169550D01*
X0271836Y0169404D01*
X0271970Y0169261D01*
X0272107Y0169121D01*
X0272247Y0168985D01*
X0272391Y0168852D01*
X0272538Y0168723D01*
X0272688Y0168597D01*
X0272841Y0168476D01*
X0272997Y0168357D01*
X0273156Y0168243D01*
X0273317Y0168133D01*
X0273482Y0168027D01*
X0273648Y0167924D01*
X0273818Y0167826D01*
X0273989Y0167732D01*
X0274163Y0167642D01*
X0274339Y0167557D01*
X0274517Y0167475D01*
X0274697Y0167399D01*
X0274879Y0167326D01*
X0275062Y0167258D01*
X0275247Y0167195D01*
X0275434Y0167136D01*
X0275622Y0167082D01*
X0275811Y0167032D01*
X0276001Y0166987D01*
X0276193Y0166947D01*
X0276385Y0166911D01*
X0276578Y0166880D01*
X0276772Y0166854D01*
X0276967Y0166832D01*
X0277162Y0166816D01*
X0277357Y0166804D01*
X0277553Y0166796D01*
X0277748Y0166794D01*
X0277941Y0166796D01*
X0278134Y0166803D01*
X0278326Y0166815D01*
X0278519Y0166831D01*
X0278711Y0166852D01*
X0278902Y0166878D01*
X0279092Y0166908D01*
X0279282Y0166943D01*
X0279471Y0166982D01*
X0279659Y0167026D01*
X0279846Y0167074D01*
X0280032Y0167127D01*
X0280216Y0167184D01*
X0280399Y0167246D01*
X0280580Y0167312D01*
X0280760Y0167383D01*
X0280938Y0167457D01*
X0281114Y0167536D01*
X0281288Y0167620D01*
X0281460Y0167707D01*
X0281630Y0167799D01*
X0281797Y0167895D01*
X0281963Y0167994D01*
X0282126Y0168098D01*
X0282286Y0168205D01*
X0282443Y0168317D01*
X0282598Y0168432D01*
X0282750Y0168551D01*
X0282899Y0168673D01*
X0283046Y0168799D01*
X0283189Y0168929D01*
X0283329Y0169062D01*
X0283465Y0169198D01*
X0283599Y0169338D01*
X0283728Y0169480D01*
X0283855Y0169626D01*
X0283894Y0179916D02*
X0283767Y0180064D01*
X0283637Y0180209D01*
X0283504Y0180350D01*
X0283367Y0180489D01*
X0283227Y0180624D01*
X0283083Y0180755D01*
X0282936Y0180883D01*
X0282787Y0181008D01*
X0282634Y0181129D01*
X0282479Y0181246D01*
X0282320Y0181359D01*
X0282159Y0181468D01*
X0281995Y0181573D01*
X0281829Y0181675D01*
X0281660Y0181772D01*
X0281490Y0181865D01*
X0281316Y0181954D01*
X0281141Y0182039D01*
X0280964Y0182119D01*
X0280785Y0182195D01*
X0280604Y0182267D01*
X0280421Y0182334D01*
X0280237Y0182397D01*
X0280051Y0182455D01*
X0279864Y0182509D01*
X0279676Y0182558D01*
X0279486Y0182603D01*
X0279296Y0182643D01*
X0279104Y0182678D01*
X0278912Y0182709D01*
X0278719Y0182735D01*
X0278525Y0182756D01*
X0278331Y0182773D01*
X0278137Y0182785D01*
X0277943Y0182792D01*
X0277748Y0182794D01*
X0270689Y0195922D02*
X0270782Y0196090D01*
X0270878Y0196256D01*
X0270978Y0196420D01*
X0271083Y0196581D01*
X0271191Y0196740D01*
X0271303Y0196896D01*
X0271419Y0197050D01*
X0271538Y0197200D01*
X0271661Y0197348D01*
X0271787Y0197493D01*
X0271917Y0197634D01*
X0272050Y0197773D01*
X0272187Y0197908D01*
X0272327Y0198040D01*
X0272469Y0198168D01*
X0272615Y0198293D01*
X0272764Y0198415D01*
X0272916Y0198533D01*
X0273070Y0198647D01*
X0273228Y0198757D01*
X0273387Y0198864D01*
X0273550Y0198967D01*
X0273715Y0199066D01*
X0273882Y0199161D01*
X0274051Y0199251D01*
X0274222Y0199338D01*
X0274396Y0199421D01*
X0274571Y0199499D01*
X0274749Y0199573D01*
X0274928Y0199643D01*
X0275108Y0199709D01*
X0275290Y0199770D01*
X0275474Y0199827D01*
X0275659Y0199879D01*
X0275845Y0199927D01*
X0276032Y0199971D01*
X0276220Y0200010D01*
X0276409Y0200044D01*
X0276599Y0200074D01*
X0276789Y0200099D01*
X0276980Y0200120D01*
X0277172Y0200136D01*
X0277364Y0200148D01*
X0277556Y0200155D01*
X0277748Y0200157D01*
X0270802Y0188188D02*
X0270901Y0188019D01*
X0271005Y0187853D01*
X0271112Y0187689D01*
X0271223Y0187528D01*
X0271338Y0187370D01*
X0271457Y0187215D01*
X0271580Y0187062D01*
X0271706Y0186913D01*
X0271836Y0186767D01*
X0271970Y0186624D01*
X0272107Y0186484D01*
X0272247Y0186348D01*
X0272391Y0186215D01*
X0272538Y0186086D01*
X0272688Y0185960D01*
X0272841Y0185839D01*
X0272997Y0185720D01*
X0273156Y0185606D01*
X0273317Y0185496D01*
X0273482Y0185390D01*
X0273648Y0185287D01*
X0273818Y0185189D01*
X0273989Y0185095D01*
X0274163Y0185005D01*
X0274339Y0184920D01*
X0274517Y0184838D01*
X0274697Y0184762D01*
X0274879Y0184689D01*
X0275062Y0184621D01*
X0275247Y0184558D01*
X0275434Y0184499D01*
X0275622Y0184445D01*
X0275811Y0184395D01*
X0276001Y0184350D01*
X0276193Y0184310D01*
X0276385Y0184274D01*
X0276578Y0184243D01*
X0276772Y0184217D01*
X0276967Y0184195D01*
X0277162Y0184179D01*
X0277357Y0184167D01*
X0277553Y0184159D01*
X0277748Y0184157D01*
X0277941Y0184159D01*
X0278134Y0184166D01*
X0278326Y0184178D01*
X0278519Y0184194D01*
X0278711Y0184215D01*
X0278902Y0184241D01*
X0279092Y0184271D01*
X0279282Y0184306D01*
X0279471Y0184345D01*
X0279659Y0184389D01*
X0279846Y0184437D01*
X0280032Y0184490D01*
X0280216Y0184547D01*
X0280399Y0184609D01*
X0280580Y0184675D01*
X0280760Y0184746D01*
X0280938Y0184820D01*
X0281114Y0184899D01*
X0281288Y0184983D01*
X0281460Y0185070D01*
X0281630Y0185162D01*
X0281797Y0185258D01*
X0281963Y0185357D01*
X0282126Y0185461D01*
X0282286Y0185568D01*
X0282443Y0185680D01*
X0282598Y0185795D01*
X0282750Y0185914D01*
X0282899Y0186036D01*
X0283046Y0186162D01*
X0283189Y0186292D01*
X0283329Y0186425D01*
X0283465Y0186561D01*
X0283599Y0186701D01*
X0283728Y0186843D01*
X0283855Y0186989D01*
X0283894Y0197279D02*
X0283767Y0197427D01*
X0283637Y0197572D01*
X0283504Y0197713D01*
X0283367Y0197852D01*
X0283227Y0197987D01*
X0283083Y0198118D01*
X0282936Y0198246D01*
X0282787Y0198371D01*
X0282634Y0198492D01*
X0282479Y0198609D01*
X0282320Y0198722D01*
X0282159Y0198831D01*
X0281995Y0198936D01*
X0281829Y0199038D01*
X0281660Y0199135D01*
X0281490Y0199228D01*
X0281316Y0199317D01*
X0281141Y0199402D01*
X0280964Y0199482D01*
X0280785Y0199558D01*
X0280604Y0199630D01*
X0280421Y0199697D01*
X0280237Y0199760D01*
X0280051Y0199818D01*
X0279864Y0199872D01*
X0279676Y0199921D01*
X0279486Y0199966D01*
X0279296Y0200006D01*
X0279104Y0200041D01*
X0278912Y0200072D01*
X0278719Y0200098D01*
X0278525Y0200119D01*
X0278331Y0200136D01*
X0278137Y0200148D01*
X0277943Y0200155D01*
X0277748Y0200157D01*
D15*
X0027000Y0215424D02*
X0027000Y0005424D01*
X0287000Y0005424D01*
X0287000Y0015424D01*
X0297000Y0025424D01*
X0297000Y0154424D01*
X0287000Y0164424D01*
X0287000Y0209424D01*
X0281000Y0215424D01*
X0027000Y0215424D01*
X0080701Y0205424D02*
X0080703Y0205582D01*
X0080709Y0205740D01*
X0080719Y0205898D01*
X0080733Y0206056D01*
X0080751Y0206213D01*
X0080772Y0206370D01*
X0080798Y0206526D01*
X0080828Y0206682D01*
X0080861Y0206837D01*
X0080899Y0206990D01*
X0080940Y0207143D01*
X0080985Y0207295D01*
X0081034Y0207446D01*
X0081087Y0207595D01*
X0081143Y0207743D01*
X0081203Y0207889D01*
X0081267Y0208034D01*
X0081335Y0208177D01*
X0081406Y0208319D01*
X0081480Y0208459D01*
X0081558Y0208596D01*
X0081640Y0208732D01*
X0081724Y0208866D01*
X0081813Y0208997D01*
X0081904Y0209126D01*
X0081999Y0209253D01*
X0082096Y0209378D01*
X0082197Y0209500D01*
X0082301Y0209619D01*
X0082408Y0209736D01*
X0082518Y0209850D01*
X0082631Y0209961D01*
X0082746Y0210070D01*
X0082864Y0210175D01*
X0082985Y0210277D01*
X0083108Y0210377D01*
X0083234Y0210473D01*
X0083362Y0210566D01*
X0083492Y0210656D01*
X0083625Y0210742D01*
X0083760Y0210826D01*
X0083896Y0210905D01*
X0084035Y0210982D01*
X0084176Y0211054D01*
X0084318Y0211124D01*
X0084462Y0211189D01*
X0084608Y0211251D01*
X0084755Y0211309D01*
X0084904Y0211364D01*
X0085054Y0211415D01*
X0085205Y0211462D01*
X0085357Y0211505D01*
X0085510Y0211544D01*
X0085665Y0211580D01*
X0085820Y0211611D01*
X0085976Y0211639D01*
X0086132Y0211663D01*
X0086289Y0211683D01*
X0086447Y0211699D01*
X0086604Y0211711D01*
X0086763Y0211719D01*
X0086921Y0211723D01*
X0087079Y0211723D01*
X0087237Y0211719D01*
X0087396Y0211711D01*
X0087553Y0211699D01*
X0087711Y0211683D01*
X0087868Y0211663D01*
X0088024Y0211639D01*
X0088180Y0211611D01*
X0088335Y0211580D01*
X0088490Y0211544D01*
X0088643Y0211505D01*
X0088795Y0211462D01*
X0088946Y0211415D01*
X0089096Y0211364D01*
X0089245Y0211309D01*
X0089392Y0211251D01*
X0089538Y0211189D01*
X0089682Y0211124D01*
X0089824Y0211054D01*
X0089965Y0210982D01*
X0090104Y0210905D01*
X0090240Y0210826D01*
X0090375Y0210742D01*
X0090508Y0210656D01*
X0090638Y0210566D01*
X0090766Y0210473D01*
X0090892Y0210377D01*
X0091015Y0210277D01*
X0091136Y0210175D01*
X0091254Y0210070D01*
X0091369Y0209961D01*
X0091482Y0209850D01*
X0091592Y0209736D01*
X0091699Y0209619D01*
X0091803Y0209500D01*
X0091904Y0209378D01*
X0092001Y0209253D01*
X0092096Y0209126D01*
X0092187Y0208997D01*
X0092276Y0208866D01*
X0092360Y0208732D01*
X0092442Y0208596D01*
X0092520Y0208459D01*
X0092594Y0208319D01*
X0092665Y0208177D01*
X0092733Y0208034D01*
X0092797Y0207889D01*
X0092857Y0207743D01*
X0092913Y0207595D01*
X0092966Y0207446D01*
X0093015Y0207295D01*
X0093060Y0207143D01*
X0093101Y0206990D01*
X0093139Y0206837D01*
X0093172Y0206682D01*
X0093202Y0206526D01*
X0093228Y0206370D01*
X0093249Y0206213D01*
X0093267Y0206056D01*
X0093281Y0205898D01*
X0093291Y0205740D01*
X0093297Y0205582D01*
X0093299Y0205424D01*
X0093297Y0205266D01*
X0093291Y0205108D01*
X0093281Y0204950D01*
X0093267Y0204792D01*
X0093249Y0204635D01*
X0093228Y0204478D01*
X0093202Y0204322D01*
X0093172Y0204166D01*
X0093139Y0204011D01*
X0093101Y0203858D01*
X0093060Y0203705D01*
X0093015Y0203553D01*
X0092966Y0203402D01*
X0092913Y0203253D01*
X0092857Y0203105D01*
X0092797Y0202959D01*
X0092733Y0202814D01*
X0092665Y0202671D01*
X0092594Y0202529D01*
X0092520Y0202389D01*
X0092442Y0202252D01*
X0092360Y0202116D01*
X0092276Y0201982D01*
X0092187Y0201851D01*
X0092096Y0201722D01*
X0092001Y0201595D01*
X0091904Y0201470D01*
X0091803Y0201348D01*
X0091699Y0201229D01*
X0091592Y0201112D01*
X0091482Y0200998D01*
X0091369Y0200887D01*
X0091254Y0200778D01*
X0091136Y0200673D01*
X0091015Y0200571D01*
X0090892Y0200471D01*
X0090766Y0200375D01*
X0090638Y0200282D01*
X0090508Y0200192D01*
X0090375Y0200106D01*
X0090240Y0200022D01*
X0090104Y0199943D01*
X0089965Y0199866D01*
X0089824Y0199794D01*
X0089682Y0199724D01*
X0089538Y0199659D01*
X0089392Y0199597D01*
X0089245Y0199539D01*
X0089096Y0199484D01*
X0088946Y0199433D01*
X0088795Y0199386D01*
X0088643Y0199343D01*
X0088490Y0199304D01*
X0088335Y0199268D01*
X0088180Y0199237D01*
X0088024Y0199209D01*
X0087868Y0199185D01*
X0087711Y0199165D01*
X0087553Y0199149D01*
X0087396Y0199137D01*
X0087237Y0199129D01*
X0087079Y0199125D01*
X0086921Y0199125D01*
X0086763Y0199129D01*
X0086604Y0199137D01*
X0086447Y0199149D01*
X0086289Y0199165D01*
X0086132Y0199185D01*
X0085976Y0199209D01*
X0085820Y0199237D01*
X0085665Y0199268D01*
X0085510Y0199304D01*
X0085357Y0199343D01*
X0085205Y0199386D01*
X0085054Y0199433D01*
X0084904Y0199484D01*
X0084755Y0199539D01*
X0084608Y0199597D01*
X0084462Y0199659D01*
X0084318Y0199724D01*
X0084176Y0199794D01*
X0084035Y0199866D01*
X0083896Y0199943D01*
X0083760Y0200022D01*
X0083625Y0200106D01*
X0083492Y0200192D01*
X0083362Y0200282D01*
X0083234Y0200375D01*
X0083108Y0200471D01*
X0082985Y0200571D01*
X0082864Y0200673D01*
X0082746Y0200778D01*
X0082631Y0200887D01*
X0082518Y0200998D01*
X0082408Y0201112D01*
X0082301Y0201229D01*
X0082197Y0201348D01*
X0082096Y0201470D01*
X0081999Y0201595D01*
X0081904Y0201722D01*
X0081813Y0201851D01*
X0081724Y0201982D01*
X0081640Y0202116D01*
X0081558Y0202252D01*
X0081480Y0202389D01*
X0081406Y0202529D01*
X0081335Y0202671D01*
X0081267Y0202814D01*
X0081203Y0202959D01*
X0081143Y0203105D01*
X0081087Y0203253D01*
X0081034Y0203402D01*
X0080985Y0203553D01*
X0080940Y0203705D01*
X0080899Y0203858D01*
X0080861Y0204011D01*
X0080828Y0204166D01*
X0080798Y0204322D01*
X0080772Y0204478D01*
X0080751Y0204635D01*
X0080733Y0204792D01*
X0080719Y0204950D01*
X0080709Y0205108D01*
X0080703Y0205266D01*
X0080701Y0205424D01*
X0280701Y0145424D02*
X0280703Y0145582D01*
X0280709Y0145740D01*
X0280719Y0145898D01*
X0280733Y0146056D01*
X0280751Y0146213D01*
X0280772Y0146370D01*
X0280798Y0146526D01*
X0280828Y0146682D01*
X0280861Y0146837D01*
X0280899Y0146990D01*
X0280940Y0147143D01*
X0280985Y0147295D01*
X0281034Y0147446D01*
X0281087Y0147595D01*
X0281143Y0147743D01*
X0281203Y0147889D01*
X0281267Y0148034D01*
X0281335Y0148177D01*
X0281406Y0148319D01*
X0281480Y0148459D01*
X0281558Y0148596D01*
X0281640Y0148732D01*
X0281724Y0148866D01*
X0281813Y0148997D01*
X0281904Y0149126D01*
X0281999Y0149253D01*
X0282096Y0149378D01*
X0282197Y0149500D01*
X0282301Y0149619D01*
X0282408Y0149736D01*
X0282518Y0149850D01*
X0282631Y0149961D01*
X0282746Y0150070D01*
X0282864Y0150175D01*
X0282985Y0150277D01*
X0283108Y0150377D01*
X0283234Y0150473D01*
X0283362Y0150566D01*
X0283492Y0150656D01*
X0283625Y0150742D01*
X0283760Y0150826D01*
X0283896Y0150905D01*
X0284035Y0150982D01*
X0284176Y0151054D01*
X0284318Y0151124D01*
X0284462Y0151189D01*
X0284608Y0151251D01*
X0284755Y0151309D01*
X0284904Y0151364D01*
X0285054Y0151415D01*
X0285205Y0151462D01*
X0285357Y0151505D01*
X0285510Y0151544D01*
X0285665Y0151580D01*
X0285820Y0151611D01*
X0285976Y0151639D01*
X0286132Y0151663D01*
X0286289Y0151683D01*
X0286447Y0151699D01*
X0286604Y0151711D01*
X0286763Y0151719D01*
X0286921Y0151723D01*
X0287079Y0151723D01*
X0287237Y0151719D01*
X0287396Y0151711D01*
X0287553Y0151699D01*
X0287711Y0151683D01*
X0287868Y0151663D01*
X0288024Y0151639D01*
X0288180Y0151611D01*
X0288335Y0151580D01*
X0288490Y0151544D01*
X0288643Y0151505D01*
X0288795Y0151462D01*
X0288946Y0151415D01*
X0289096Y0151364D01*
X0289245Y0151309D01*
X0289392Y0151251D01*
X0289538Y0151189D01*
X0289682Y0151124D01*
X0289824Y0151054D01*
X0289965Y0150982D01*
X0290104Y0150905D01*
X0290240Y0150826D01*
X0290375Y0150742D01*
X0290508Y0150656D01*
X0290638Y0150566D01*
X0290766Y0150473D01*
X0290892Y0150377D01*
X0291015Y0150277D01*
X0291136Y0150175D01*
X0291254Y0150070D01*
X0291369Y0149961D01*
X0291482Y0149850D01*
X0291592Y0149736D01*
X0291699Y0149619D01*
X0291803Y0149500D01*
X0291904Y0149378D01*
X0292001Y0149253D01*
X0292096Y0149126D01*
X0292187Y0148997D01*
X0292276Y0148866D01*
X0292360Y0148732D01*
X0292442Y0148596D01*
X0292520Y0148459D01*
X0292594Y0148319D01*
X0292665Y0148177D01*
X0292733Y0148034D01*
X0292797Y0147889D01*
X0292857Y0147743D01*
X0292913Y0147595D01*
X0292966Y0147446D01*
X0293015Y0147295D01*
X0293060Y0147143D01*
X0293101Y0146990D01*
X0293139Y0146837D01*
X0293172Y0146682D01*
X0293202Y0146526D01*
X0293228Y0146370D01*
X0293249Y0146213D01*
X0293267Y0146056D01*
X0293281Y0145898D01*
X0293291Y0145740D01*
X0293297Y0145582D01*
X0293299Y0145424D01*
X0293297Y0145266D01*
X0293291Y0145108D01*
X0293281Y0144950D01*
X0293267Y0144792D01*
X0293249Y0144635D01*
X0293228Y0144478D01*
X0293202Y0144322D01*
X0293172Y0144166D01*
X0293139Y0144011D01*
X0293101Y0143858D01*
X0293060Y0143705D01*
X0293015Y0143553D01*
X0292966Y0143402D01*
X0292913Y0143253D01*
X0292857Y0143105D01*
X0292797Y0142959D01*
X0292733Y0142814D01*
X0292665Y0142671D01*
X0292594Y0142529D01*
X0292520Y0142389D01*
X0292442Y0142252D01*
X0292360Y0142116D01*
X0292276Y0141982D01*
X0292187Y0141851D01*
X0292096Y0141722D01*
X0292001Y0141595D01*
X0291904Y0141470D01*
X0291803Y0141348D01*
X0291699Y0141229D01*
X0291592Y0141112D01*
X0291482Y0140998D01*
X0291369Y0140887D01*
X0291254Y0140778D01*
X0291136Y0140673D01*
X0291015Y0140571D01*
X0290892Y0140471D01*
X0290766Y0140375D01*
X0290638Y0140282D01*
X0290508Y0140192D01*
X0290375Y0140106D01*
X0290240Y0140022D01*
X0290104Y0139943D01*
X0289965Y0139866D01*
X0289824Y0139794D01*
X0289682Y0139724D01*
X0289538Y0139659D01*
X0289392Y0139597D01*
X0289245Y0139539D01*
X0289096Y0139484D01*
X0288946Y0139433D01*
X0288795Y0139386D01*
X0288643Y0139343D01*
X0288490Y0139304D01*
X0288335Y0139268D01*
X0288180Y0139237D01*
X0288024Y0139209D01*
X0287868Y0139185D01*
X0287711Y0139165D01*
X0287553Y0139149D01*
X0287396Y0139137D01*
X0287237Y0139129D01*
X0287079Y0139125D01*
X0286921Y0139125D01*
X0286763Y0139129D01*
X0286604Y0139137D01*
X0286447Y0139149D01*
X0286289Y0139165D01*
X0286132Y0139185D01*
X0285976Y0139209D01*
X0285820Y0139237D01*
X0285665Y0139268D01*
X0285510Y0139304D01*
X0285357Y0139343D01*
X0285205Y0139386D01*
X0285054Y0139433D01*
X0284904Y0139484D01*
X0284755Y0139539D01*
X0284608Y0139597D01*
X0284462Y0139659D01*
X0284318Y0139724D01*
X0284176Y0139794D01*
X0284035Y0139866D01*
X0283896Y0139943D01*
X0283760Y0140022D01*
X0283625Y0140106D01*
X0283492Y0140192D01*
X0283362Y0140282D01*
X0283234Y0140375D01*
X0283108Y0140471D01*
X0282985Y0140571D01*
X0282864Y0140673D01*
X0282746Y0140778D01*
X0282631Y0140887D01*
X0282518Y0140998D01*
X0282408Y0141112D01*
X0282301Y0141229D01*
X0282197Y0141348D01*
X0282096Y0141470D01*
X0281999Y0141595D01*
X0281904Y0141722D01*
X0281813Y0141851D01*
X0281724Y0141982D01*
X0281640Y0142116D01*
X0281558Y0142252D01*
X0281480Y0142389D01*
X0281406Y0142529D01*
X0281335Y0142671D01*
X0281267Y0142814D01*
X0281203Y0142959D01*
X0281143Y0143105D01*
X0281087Y0143253D01*
X0281034Y0143402D01*
X0280985Y0143553D01*
X0280940Y0143705D01*
X0280899Y0143858D01*
X0280861Y0144011D01*
X0280828Y0144166D01*
X0280798Y0144322D01*
X0280772Y0144478D01*
X0280751Y0144635D01*
X0280733Y0144792D01*
X0280719Y0144950D01*
X0280709Y0145108D01*
X0280703Y0145266D01*
X0280701Y0145424D01*
X0075701Y0015424D02*
X0075703Y0015582D01*
X0075709Y0015740D01*
X0075719Y0015898D01*
X0075733Y0016056D01*
X0075751Y0016213D01*
X0075772Y0016370D01*
X0075798Y0016526D01*
X0075828Y0016682D01*
X0075861Y0016837D01*
X0075899Y0016990D01*
X0075940Y0017143D01*
X0075985Y0017295D01*
X0076034Y0017446D01*
X0076087Y0017595D01*
X0076143Y0017743D01*
X0076203Y0017889D01*
X0076267Y0018034D01*
X0076335Y0018177D01*
X0076406Y0018319D01*
X0076480Y0018459D01*
X0076558Y0018596D01*
X0076640Y0018732D01*
X0076724Y0018866D01*
X0076813Y0018997D01*
X0076904Y0019126D01*
X0076999Y0019253D01*
X0077096Y0019378D01*
X0077197Y0019500D01*
X0077301Y0019619D01*
X0077408Y0019736D01*
X0077518Y0019850D01*
X0077631Y0019961D01*
X0077746Y0020070D01*
X0077864Y0020175D01*
X0077985Y0020277D01*
X0078108Y0020377D01*
X0078234Y0020473D01*
X0078362Y0020566D01*
X0078492Y0020656D01*
X0078625Y0020742D01*
X0078760Y0020826D01*
X0078896Y0020905D01*
X0079035Y0020982D01*
X0079176Y0021054D01*
X0079318Y0021124D01*
X0079462Y0021189D01*
X0079608Y0021251D01*
X0079755Y0021309D01*
X0079904Y0021364D01*
X0080054Y0021415D01*
X0080205Y0021462D01*
X0080357Y0021505D01*
X0080510Y0021544D01*
X0080665Y0021580D01*
X0080820Y0021611D01*
X0080976Y0021639D01*
X0081132Y0021663D01*
X0081289Y0021683D01*
X0081447Y0021699D01*
X0081604Y0021711D01*
X0081763Y0021719D01*
X0081921Y0021723D01*
X0082079Y0021723D01*
X0082237Y0021719D01*
X0082396Y0021711D01*
X0082553Y0021699D01*
X0082711Y0021683D01*
X0082868Y0021663D01*
X0083024Y0021639D01*
X0083180Y0021611D01*
X0083335Y0021580D01*
X0083490Y0021544D01*
X0083643Y0021505D01*
X0083795Y0021462D01*
X0083946Y0021415D01*
X0084096Y0021364D01*
X0084245Y0021309D01*
X0084392Y0021251D01*
X0084538Y0021189D01*
X0084682Y0021124D01*
X0084824Y0021054D01*
X0084965Y0020982D01*
X0085104Y0020905D01*
X0085240Y0020826D01*
X0085375Y0020742D01*
X0085508Y0020656D01*
X0085638Y0020566D01*
X0085766Y0020473D01*
X0085892Y0020377D01*
X0086015Y0020277D01*
X0086136Y0020175D01*
X0086254Y0020070D01*
X0086369Y0019961D01*
X0086482Y0019850D01*
X0086592Y0019736D01*
X0086699Y0019619D01*
X0086803Y0019500D01*
X0086904Y0019378D01*
X0087001Y0019253D01*
X0087096Y0019126D01*
X0087187Y0018997D01*
X0087276Y0018866D01*
X0087360Y0018732D01*
X0087442Y0018596D01*
X0087520Y0018459D01*
X0087594Y0018319D01*
X0087665Y0018177D01*
X0087733Y0018034D01*
X0087797Y0017889D01*
X0087857Y0017743D01*
X0087913Y0017595D01*
X0087966Y0017446D01*
X0088015Y0017295D01*
X0088060Y0017143D01*
X0088101Y0016990D01*
X0088139Y0016837D01*
X0088172Y0016682D01*
X0088202Y0016526D01*
X0088228Y0016370D01*
X0088249Y0016213D01*
X0088267Y0016056D01*
X0088281Y0015898D01*
X0088291Y0015740D01*
X0088297Y0015582D01*
X0088299Y0015424D01*
X0088297Y0015266D01*
X0088291Y0015108D01*
X0088281Y0014950D01*
X0088267Y0014792D01*
X0088249Y0014635D01*
X0088228Y0014478D01*
X0088202Y0014322D01*
X0088172Y0014166D01*
X0088139Y0014011D01*
X0088101Y0013858D01*
X0088060Y0013705D01*
X0088015Y0013553D01*
X0087966Y0013402D01*
X0087913Y0013253D01*
X0087857Y0013105D01*
X0087797Y0012959D01*
X0087733Y0012814D01*
X0087665Y0012671D01*
X0087594Y0012529D01*
X0087520Y0012389D01*
X0087442Y0012252D01*
X0087360Y0012116D01*
X0087276Y0011982D01*
X0087187Y0011851D01*
X0087096Y0011722D01*
X0087001Y0011595D01*
X0086904Y0011470D01*
X0086803Y0011348D01*
X0086699Y0011229D01*
X0086592Y0011112D01*
X0086482Y0010998D01*
X0086369Y0010887D01*
X0086254Y0010778D01*
X0086136Y0010673D01*
X0086015Y0010571D01*
X0085892Y0010471D01*
X0085766Y0010375D01*
X0085638Y0010282D01*
X0085508Y0010192D01*
X0085375Y0010106D01*
X0085240Y0010022D01*
X0085104Y0009943D01*
X0084965Y0009866D01*
X0084824Y0009794D01*
X0084682Y0009724D01*
X0084538Y0009659D01*
X0084392Y0009597D01*
X0084245Y0009539D01*
X0084096Y0009484D01*
X0083946Y0009433D01*
X0083795Y0009386D01*
X0083643Y0009343D01*
X0083490Y0009304D01*
X0083335Y0009268D01*
X0083180Y0009237D01*
X0083024Y0009209D01*
X0082868Y0009185D01*
X0082711Y0009165D01*
X0082553Y0009149D01*
X0082396Y0009137D01*
X0082237Y0009129D01*
X0082079Y0009125D01*
X0081921Y0009125D01*
X0081763Y0009129D01*
X0081604Y0009137D01*
X0081447Y0009149D01*
X0081289Y0009165D01*
X0081132Y0009185D01*
X0080976Y0009209D01*
X0080820Y0009237D01*
X0080665Y0009268D01*
X0080510Y0009304D01*
X0080357Y0009343D01*
X0080205Y0009386D01*
X0080054Y0009433D01*
X0079904Y0009484D01*
X0079755Y0009539D01*
X0079608Y0009597D01*
X0079462Y0009659D01*
X0079318Y0009724D01*
X0079176Y0009794D01*
X0079035Y0009866D01*
X0078896Y0009943D01*
X0078760Y0010022D01*
X0078625Y0010106D01*
X0078492Y0010192D01*
X0078362Y0010282D01*
X0078234Y0010375D01*
X0078108Y0010471D01*
X0077985Y0010571D01*
X0077864Y0010673D01*
X0077746Y0010778D01*
X0077631Y0010887D01*
X0077518Y0010998D01*
X0077408Y0011112D01*
X0077301Y0011229D01*
X0077197Y0011348D01*
X0077096Y0011470D01*
X0076999Y0011595D01*
X0076904Y0011722D01*
X0076813Y0011851D01*
X0076724Y0011982D01*
X0076640Y0012116D01*
X0076558Y0012252D01*
X0076480Y0012389D01*
X0076406Y0012529D01*
X0076335Y0012671D01*
X0076267Y0012814D01*
X0076203Y0012959D01*
X0076143Y0013105D01*
X0076087Y0013253D01*
X0076034Y0013402D01*
X0075985Y0013553D01*
X0075940Y0013705D01*
X0075899Y0013858D01*
X0075861Y0014011D01*
X0075828Y0014166D01*
X0075798Y0014322D01*
X0075772Y0014478D01*
X0075751Y0014635D01*
X0075733Y0014792D01*
X0075719Y0014950D01*
X0075709Y0015108D01*
X0075703Y0015266D01*
X0075701Y0015424D01*
D16*
X0150110Y0020574D02*
X0150110Y0024277D01*
X0151962Y0024277D01*
X0152579Y0023660D01*
X0152579Y0022426D01*
X0151962Y0021809D01*
X0150110Y0021809D01*
X0151345Y0021809D02*
X0152579Y0020574D01*
X0153793Y0021191D02*
X0154411Y0020574D01*
X0155645Y0020574D01*
X0156262Y0021191D01*
X0156262Y0021809D01*
X0155645Y0022426D01*
X0154411Y0022426D01*
X0153793Y0023043D01*
X0153793Y0023660D01*
X0154411Y0024277D01*
X0155645Y0024277D01*
X0156262Y0023660D01*
X0157477Y0024277D02*
X0159945Y0024277D01*
X0158711Y0024277D02*
X0158711Y0020574D01*
X0163970Y0021191D02*
X0164587Y0020574D01*
X0165822Y0020574D01*
X0166439Y0021191D01*
X0166439Y0021809D01*
X0165822Y0022426D01*
X0165204Y0022426D01*
X0165822Y0022426D02*
X0166439Y0023043D01*
X0166439Y0023660D01*
X0165822Y0024277D01*
X0164587Y0024277D01*
X0163970Y0023660D01*
X0167653Y0023043D02*
X0168888Y0020574D01*
X0170122Y0023043D01*
X0174970Y0022426D02*
X0176204Y0023043D01*
X0176822Y0023043D01*
X0177439Y0022426D01*
X0177439Y0021191D01*
X0176822Y0020574D01*
X0175587Y0020574D01*
X0174970Y0021191D01*
X0174970Y0022426D02*
X0174970Y0024277D01*
X0177439Y0024277D01*
X0178653Y0023043D02*
X0179888Y0020574D01*
X0181122Y0023043D01*
X0187690Y0023660D02*
X0187690Y0021191D01*
X0188307Y0020574D01*
X0189541Y0020574D01*
X0190159Y0021191D01*
X0190159Y0022426D01*
X0188924Y0022426D01*
X0187690Y0023660D02*
X0188307Y0024277D01*
X0189541Y0024277D01*
X0190159Y0023660D01*
X0191373Y0023043D02*
X0193224Y0023043D01*
X0193842Y0022426D01*
X0193842Y0020574D01*
X0195056Y0021191D02*
X0195056Y0022426D01*
X0195673Y0023043D01*
X0197525Y0023043D01*
X0197525Y0024277D02*
X0197525Y0020574D01*
X0195673Y0020574D01*
X0195056Y0021191D01*
X0191373Y0020574D02*
X0191373Y0023043D01*
X0203470Y0021809D02*
X0204704Y0020574D01*
X0205939Y0021809D01*
X0205939Y0024277D01*
X0207153Y0023043D02*
X0207770Y0023043D01*
X0207770Y0020574D01*
X0207153Y0020574D02*
X0208388Y0020574D01*
X0209609Y0020574D02*
X0209609Y0023043D01*
X0211460Y0023043D01*
X0212077Y0022426D01*
X0212077Y0020574D01*
X0207770Y0024277D02*
X0207770Y0024895D01*
X0203470Y0024277D02*
X0203470Y0021809D01*
X0225650Y0021191D02*
X0228119Y0023660D01*
X0228119Y0021191D01*
X0227502Y0020574D01*
X0226267Y0020574D01*
X0225650Y0021191D01*
X0225650Y0023660D01*
X0226267Y0024277D01*
X0227502Y0024277D01*
X0228119Y0023660D01*
X0235650Y0023043D02*
X0236884Y0024277D01*
X0236884Y0020574D01*
X0235650Y0020574D02*
X0238119Y0020574D01*
X0245650Y0020574D02*
X0248119Y0023043D01*
X0248119Y0023660D01*
X0247502Y0024277D01*
X0246267Y0024277D01*
X0245650Y0023660D01*
X0245650Y0020574D02*
X0248119Y0020574D01*
X0255650Y0021191D02*
X0256267Y0020574D01*
X0257502Y0020574D01*
X0258119Y0021191D01*
X0258119Y0021809D01*
X0257502Y0022426D01*
X0256884Y0022426D01*
X0257502Y0022426D02*
X0258119Y0023043D01*
X0258119Y0023660D01*
X0257502Y0024277D01*
X0256267Y0024277D01*
X0255650Y0023660D01*
X0265650Y0022426D02*
X0268119Y0022426D01*
X0267502Y0024277D02*
X0267502Y0020574D01*
X0265650Y0022426D02*
X0267502Y0024277D01*
X0275650Y0024277D02*
X0275650Y0022426D01*
X0276884Y0023043D01*
X0277502Y0023043D01*
X0278119Y0022426D01*
X0278119Y0021191D01*
X0277502Y0020574D01*
X0276267Y0020574D01*
X0275650Y0021191D01*
X0275650Y0024277D02*
X0278119Y0024277D01*
X0265978Y0011097D02*
X0264744Y0011097D01*
X0265361Y0011097D02*
X0265361Y0007394D01*
X0264744Y0007394D02*
X0265978Y0007394D01*
X0267199Y0007394D02*
X0267199Y0009863D01*
X0269051Y0009863D01*
X0269668Y0009246D01*
X0269668Y0007394D01*
X0259847Y0007394D02*
X0257995Y0007394D01*
X0257378Y0008012D01*
X0257378Y0009246D01*
X0257995Y0009863D01*
X0259847Y0009863D01*
X0259847Y0006777D01*
X0259229Y0006160D01*
X0258612Y0006160D01*
X0256163Y0008012D02*
X0256163Y0009246D01*
X0255546Y0009863D01*
X0254312Y0009863D01*
X0253695Y0009246D01*
X0253695Y0008012D01*
X0254312Y0007394D01*
X0255546Y0007394D01*
X0256163Y0008012D01*
X0252474Y0007394D02*
X0251239Y0007394D01*
X0251856Y0007394D02*
X0251856Y0011097D01*
X0251239Y0011097D01*
X0249408Y0009863D02*
X0250025Y0009246D01*
X0250025Y0007394D01*
X0248173Y0007394D01*
X0247556Y0008012D01*
X0248173Y0008629D01*
X0250025Y0008629D01*
X0249408Y0009863D02*
X0248173Y0009863D01*
X0246342Y0009246D02*
X0246342Y0007394D01*
X0246342Y0009246D02*
X0245724Y0009863D01*
X0243873Y0009863D01*
X0243873Y0007394D01*
X0242659Y0007394D02*
X0242659Y0009863D01*
X0241424Y0011097D01*
X0240190Y0009863D01*
X0240190Y0007394D01*
X0240190Y0009246D02*
X0242659Y0009246D01*
X0246584Y0196574D02*
X0245967Y0197191D01*
X0246584Y0196574D02*
X0247818Y0196574D01*
X0248436Y0197191D01*
X0248436Y0197809D01*
X0247818Y0198426D01*
X0247201Y0198426D01*
X0247818Y0198426D02*
X0248436Y0199043D01*
X0248436Y0199660D01*
X0247818Y0200277D01*
X0246584Y0200277D01*
X0245967Y0199660D01*
X0238436Y0198426D02*
X0235967Y0198426D01*
X0237818Y0200277D01*
X0237818Y0196574D01*
X0228436Y0197191D02*
X0227818Y0196574D01*
X0226584Y0196574D01*
X0225967Y0197191D01*
X0225967Y0198426D02*
X0227201Y0199043D01*
X0227818Y0199043D01*
X0228436Y0198426D01*
X0228436Y0197191D01*
X0225967Y0198426D02*
X0225967Y0200277D01*
X0228436Y0200277D01*
X0218436Y0200277D02*
X0217201Y0199660D01*
X0215967Y0198426D01*
X0217818Y0198426D01*
X0218436Y0197809D01*
X0218436Y0197191D01*
X0217818Y0196574D01*
X0216584Y0196574D01*
X0215967Y0197191D01*
X0215967Y0198426D01*
X0208436Y0199660D02*
X0205967Y0197191D01*
X0205967Y0196574D01*
X0205967Y0200277D02*
X0208436Y0200277D01*
X0208436Y0199660D01*
X0192436Y0199660D02*
X0192436Y0199043D01*
X0191818Y0198426D01*
X0190584Y0198426D01*
X0189967Y0199043D01*
X0189967Y0199660D01*
X0190584Y0200277D01*
X0191818Y0200277D01*
X0192436Y0199660D01*
X0191818Y0198426D02*
X0192436Y0197809D01*
X0192436Y0197191D01*
X0191818Y0196574D01*
X0190584Y0196574D01*
X0189967Y0197191D01*
X0189967Y0197809D01*
X0190584Y0198426D01*
X0182436Y0198426D02*
X0180584Y0198426D01*
X0179967Y0199043D01*
X0179967Y0199660D01*
X0180584Y0200277D01*
X0181818Y0200277D01*
X0182436Y0199660D01*
X0182436Y0197191D01*
X0181818Y0196574D01*
X0180584Y0196574D01*
X0179967Y0197191D01*
X0174436Y0197191D02*
X0174436Y0199660D01*
X0171967Y0197191D01*
X0172584Y0196574D01*
X0173818Y0196574D01*
X0174436Y0197191D01*
X0171967Y0197191D02*
X0171967Y0199660D01*
X0172584Y0200277D01*
X0173818Y0200277D01*
X0174436Y0199660D01*
X0169518Y0200277D02*
X0168284Y0199043D01*
X0169518Y0200277D02*
X0169518Y0196574D01*
X0168284Y0196574D02*
X0170752Y0196574D01*
X0164436Y0196574D02*
X0161967Y0196574D01*
X0160752Y0196574D02*
X0158284Y0196574D01*
X0159518Y0196574D02*
X0159518Y0200277D01*
X0158284Y0199043D01*
X0161967Y0199043D02*
X0163201Y0200277D01*
X0163201Y0196574D01*
X0154436Y0196574D02*
X0151967Y0196574D01*
X0154436Y0199043D01*
X0154436Y0199660D01*
X0153818Y0200277D01*
X0152584Y0200277D01*
X0151967Y0199660D01*
X0149518Y0200277D02*
X0148284Y0199043D01*
X0149518Y0200277D02*
X0149518Y0196574D01*
X0148284Y0196574D02*
X0150752Y0196574D01*
X0144436Y0197191D02*
X0143818Y0196574D01*
X0142584Y0196574D01*
X0141967Y0197191D01*
X0140752Y0196574D02*
X0138284Y0196574D01*
X0139518Y0196574D02*
X0139518Y0200277D01*
X0138284Y0199043D01*
X0135936Y0199043D02*
X0134084Y0199043D01*
X0133467Y0198426D01*
X0133467Y0197191D01*
X0134084Y0196574D01*
X0135936Y0196574D01*
X0135936Y0200277D01*
X0132252Y0198426D02*
X0132252Y0196574D01*
X0132252Y0198426D02*
X0131635Y0199043D01*
X0129784Y0199043D01*
X0129784Y0196574D01*
X0128569Y0196574D02*
X0126718Y0196574D01*
X0126101Y0197191D01*
X0126101Y0198426D01*
X0126718Y0199043D01*
X0128569Y0199043D01*
X0128569Y0195957D01*
X0127952Y0195340D01*
X0127335Y0195340D01*
X0122812Y0196574D02*
X0122812Y0199660D01*
X0123429Y0200277D01*
X0123429Y0198426D02*
X0122195Y0198426D01*
X0120980Y0198426D02*
X0120980Y0197809D01*
X0118511Y0197809D01*
X0118511Y0198426D02*
X0119129Y0199043D01*
X0120363Y0199043D01*
X0120980Y0198426D01*
X0120363Y0196574D02*
X0119129Y0196574D01*
X0118511Y0197191D01*
X0118511Y0198426D01*
X0117297Y0198426D02*
X0117297Y0199660D01*
X0116680Y0200277D01*
X0114828Y0200277D01*
X0114828Y0196574D01*
X0113614Y0196574D02*
X0113614Y0199043D01*
X0112380Y0200277D01*
X0111145Y0199043D01*
X0111145Y0196574D01*
X0111145Y0198426D02*
X0113614Y0198426D01*
X0114828Y0197809D02*
X0116680Y0197809D01*
X0117297Y0198426D01*
X0116063Y0197809D02*
X0117297Y0196574D01*
X0141967Y0199660D02*
X0142584Y0200277D01*
X0143818Y0200277D01*
X0144436Y0199660D01*
X0144436Y0199043D01*
X0143818Y0198426D01*
X0144436Y0197809D01*
X0144436Y0197191D01*
X0143818Y0198426D02*
X0143201Y0198426D01*
X0159023Y0209340D02*
X0159640Y0209340D01*
X0160257Y0209957D01*
X0160257Y0213043D01*
X0158406Y0213043D01*
X0157789Y0212426D01*
X0157789Y0211191D01*
X0158406Y0210574D01*
X0160257Y0210574D01*
X0161472Y0210574D02*
X0162706Y0210574D01*
X0162089Y0210574D02*
X0162089Y0213043D01*
X0161472Y0213043D01*
X0162089Y0214277D02*
X0162089Y0214895D01*
X0163927Y0213043D02*
X0165162Y0213043D01*
X0164544Y0213660D02*
X0164544Y0211191D01*
X0165162Y0210574D01*
X0166383Y0211191D02*
X0167000Y0211809D01*
X0168851Y0211809D01*
X0168851Y0212426D02*
X0168851Y0210574D01*
X0167000Y0210574D01*
X0166383Y0211191D01*
X0167000Y0213043D02*
X0168234Y0213043D01*
X0168851Y0212426D01*
X0170066Y0214277D02*
X0170683Y0214277D01*
X0170683Y0210574D01*
X0170066Y0210574D02*
X0171300Y0210574D01*
X0176204Y0210574D02*
X0177439Y0210574D01*
X0176821Y0210574D02*
X0176821Y0214277D01*
X0176204Y0214277D02*
X0177439Y0214277D01*
X0181128Y0214277D02*
X0178660Y0210574D01*
X0182343Y0211191D02*
X0182343Y0213660D01*
X0182960Y0214277D01*
X0184194Y0214277D01*
X0184812Y0213660D01*
X0184812Y0211191D01*
X0184194Y0210574D01*
X0182960Y0210574D01*
X0182343Y0211191D01*
X0156568Y0210574D02*
X0155333Y0210574D01*
X0155950Y0210574D02*
X0155950Y0213043D01*
X0155333Y0213043D01*
X0154119Y0213660D02*
X0153502Y0214277D01*
X0151650Y0214277D01*
X0151650Y0210574D01*
X0153502Y0210574D01*
X0154119Y0211191D01*
X0154119Y0213660D01*
X0155950Y0214277D02*
X0155950Y0214895D01*
X0227650Y0214277D02*
X0227650Y0210574D01*
X0229502Y0210574D01*
X0230119Y0211191D01*
X0230119Y0213660D01*
X0229502Y0214277D01*
X0227650Y0214277D01*
X0231333Y0213043D02*
X0231950Y0213043D01*
X0231950Y0210574D01*
X0231333Y0210574D02*
X0232568Y0210574D01*
X0233789Y0211191D02*
X0234406Y0210574D01*
X0236257Y0210574D01*
X0236257Y0209957D02*
X0236257Y0213043D01*
X0234406Y0213043D01*
X0233789Y0212426D01*
X0233789Y0211191D01*
X0235023Y0209340D02*
X0235640Y0209340D01*
X0236257Y0209957D01*
X0237472Y0210574D02*
X0238706Y0210574D01*
X0238089Y0210574D02*
X0238089Y0213043D01*
X0237472Y0213043D01*
X0238089Y0214277D02*
X0238089Y0214895D01*
X0239927Y0213043D02*
X0241162Y0213043D01*
X0240544Y0213660D02*
X0240544Y0211191D01*
X0241162Y0210574D01*
X0242383Y0211191D02*
X0243000Y0211809D01*
X0244851Y0211809D01*
X0244851Y0212426D02*
X0244851Y0210574D01*
X0243000Y0210574D01*
X0242383Y0211191D01*
X0243000Y0213043D02*
X0244234Y0213043D01*
X0244851Y0212426D01*
X0246066Y0214277D02*
X0246683Y0214277D01*
X0246683Y0210574D01*
X0246066Y0210574D02*
X0247300Y0210574D01*
X0252204Y0210574D02*
X0253439Y0210574D01*
X0252821Y0210574D02*
X0252821Y0214277D01*
X0252204Y0214277D02*
X0253439Y0214277D01*
X0257128Y0214277D02*
X0254660Y0210574D01*
X0258343Y0211191D02*
X0258343Y0213660D01*
X0258960Y0214277D01*
X0260194Y0214277D01*
X0260812Y0213660D01*
X0260812Y0211191D01*
X0260194Y0210574D01*
X0258960Y0210574D01*
X0258343Y0211191D01*
X0257818Y0200277D02*
X0256584Y0200277D01*
X0255967Y0199660D01*
X0257818Y0200277D02*
X0258436Y0199660D01*
X0258436Y0199043D01*
X0255967Y0196574D01*
X0258436Y0196574D01*
X0265967Y0196574D02*
X0268436Y0196574D01*
X0267201Y0196574D02*
X0267201Y0200277D01*
X0265967Y0199043D01*
X0275967Y0199660D02*
X0275967Y0197191D01*
X0278436Y0199660D01*
X0278436Y0197191D01*
X0277818Y0196574D01*
X0276584Y0196574D01*
X0275967Y0197191D01*
X0275967Y0199660D02*
X0276584Y0200277D01*
X0277818Y0200277D01*
X0278436Y0199660D01*
X0231950Y0214277D02*
X0231950Y0214895D01*
M02*
