G75*
%MOIN*%
%OFA0B0*%
%FSLAX25Y25*%
%IPPOS*%
%LPD*%
%AMOC8*
5,1,8,0,0,1.08239X$1,22.5*
%
%ADD10OC8,0.05200*%
%ADD11C,0.05200*%
%ADD12R,0.06000X0.06000*%
%ADD13OC8,0.06000*%
%ADD14C,0.06000*%
%ADD15OC8,0.06600*%
%ADD16OC8,0.06200*%
%ADD17C,0.06200*%
%ADD18C,0.07400*%
%ADD19C,0.02400*%
%ADD20C,0.04000*%
%ADD21C,0.05000*%
D10*
X0089646Y0038307D03*
X0089646Y0058307D03*
X0089646Y0085551D03*
X0089646Y0105551D03*
X0089646Y0132795D03*
X0089646Y0152795D03*
X0089549Y0175746D03*
X0059549Y0175746D03*
X0165800Y0178304D03*
X0175388Y0185446D03*
X0185000Y0192500D03*
X0195388Y0185446D03*
X0185800Y0178304D03*
X0205000Y0192500D03*
X0250000Y0192500D03*
X0260000Y0192500D03*
X0260000Y0174882D03*
X0250000Y0174882D03*
X0250000Y0157362D03*
X0260000Y0157362D03*
D11*
X0199016Y0155195D02*
X0199016Y0160395D01*
X0189016Y0160395D02*
X0189016Y0155195D01*
X0179016Y0155195D02*
X0179016Y0160395D01*
X0169016Y0160395D02*
X0169016Y0155195D01*
X0159016Y0155195D02*
X0159016Y0160395D01*
X0149016Y0160395D02*
X0149016Y0155195D01*
X0139016Y0155195D02*
X0139016Y0160395D01*
X0129016Y0160395D02*
X0129016Y0155195D01*
X0119016Y0155195D02*
X0119016Y0160395D01*
X0109016Y0160395D02*
X0109016Y0155195D01*
X0109016Y0130395D02*
X0109016Y0125195D01*
X0119016Y0125195D02*
X0119016Y0130395D01*
X0129016Y0130395D02*
X0129016Y0125195D01*
X0139016Y0125195D02*
X0139016Y0130395D01*
X0149016Y0130395D02*
X0149016Y0125195D01*
X0159016Y0125195D02*
X0159016Y0130395D01*
X0169016Y0130395D02*
X0169016Y0125195D01*
X0179016Y0125195D02*
X0179016Y0130395D01*
X0189016Y0130395D02*
X0189016Y0125195D01*
X0199016Y0125195D02*
X0199016Y0130395D01*
X0169067Y0113151D02*
X0169067Y0107951D01*
X0159067Y0107951D02*
X0159067Y0113151D01*
X0149067Y0113151D02*
X0149067Y0107951D01*
X0139067Y0107951D02*
X0139067Y0113151D01*
X0129067Y0113151D02*
X0129067Y0107951D01*
X0119067Y0107951D02*
X0119067Y0113151D01*
X0109067Y0113151D02*
X0109067Y0107951D01*
X0109067Y0083151D02*
X0109067Y0077951D01*
X0119067Y0077951D02*
X0119067Y0083151D01*
X0129067Y0083151D02*
X0129067Y0077951D01*
X0139067Y0077951D02*
X0139067Y0083151D01*
X0149067Y0083151D02*
X0149067Y0077951D01*
X0159067Y0077951D02*
X0159067Y0083151D01*
X0169067Y0083151D02*
X0169067Y0077951D01*
X0139034Y0065907D02*
X0139034Y0060707D01*
X0129034Y0060707D02*
X0129034Y0065907D01*
X0119034Y0065907D02*
X0119034Y0060707D01*
X0109034Y0060707D02*
X0109034Y0065907D01*
X0109034Y0035907D02*
X0109034Y0030707D01*
X0119034Y0030707D02*
X0119034Y0035907D01*
X0129034Y0035907D02*
X0129034Y0030707D01*
X0139034Y0030707D02*
X0139034Y0035907D01*
D12*
X0229264Y0096894D03*
D13*
X0239264Y0096894D03*
X0239264Y0086894D03*
X0229264Y0086894D03*
X0229264Y0076894D03*
X0239264Y0076894D03*
D14*
X0049583Y0130932D02*
X0049583Y0136932D01*
X0031783Y0136932D02*
X0031783Y0130932D01*
X0031783Y0156532D02*
X0031783Y0162532D01*
X0049583Y0162532D02*
X0049583Y0156532D01*
D15*
X0079000Y0205000D03*
X0079000Y0205000D03*
X0089000Y0205000D03*
X0089000Y0205000D03*
X0099000Y0205000D03*
X0109000Y0205000D03*
X0119000Y0205000D03*
X0129000Y0205000D03*
X0139000Y0205000D03*
X0149000Y0205000D03*
X0159000Y0205000D03*
X0169000Y0205000D03*
X0185000Y0205000D03*
X0195000Y0205000D03*
X0205000Y0205000D03*
X0215000Y0205000D03*
X0225000Y0205000D03*
X0235000Y0205000D03*
X0245000Y0205000D03*
X0255000Y0205000D03*
X0255000Y0015000D03*
X0245000Y0015000D03*
X0235000Y0015000D03*
X0225000Y0015000D03*
X0215000Y0015000D03*
X0205000Y0015000D03*
X0185000Y0015000D03*
X0175000Y0015000D03*
X0165000Y0015000D03*
X0155000Y0015000D03*
X0145000Y0015000D03*
X0135000Y0015000D03*
X0125000Y0015000D03*
X0115000Y0015000D03*
D16*
X0045583Y0094562D03*
D17*
X0035583Y0094562D03*
D18*
X0035600Y0057100D03*
X0046300Y0057100D03*
X0057000Y0057100D03*
D19*
X0009871Y0010612D02*
X0009871Y0181478D01*
X0042352Y0181478D01*
X0042352Y0209824D01*
X0054507Y0209824D01*
X0054284Y0209439D01*
X0053501Y0206514D01*
X0053501Y0203486D01*
X0054284Y0200561D01*
X0055798Y0197939D01*
X0057939Y0195798D01*
X0060561Y0194284D01*
X0063486Y0193501D01*
X0066514Y0193501D01*
X0069439Y0194284D01*
X0072061Y0195798D01*
X0074121Y0197858D01*
X0075479Y0196500D01*
X0082521Y0196500D01*
X0084000Y0197979D01*
X0085479Y0196500D01*
X0092521Y0196500D01*
X0094000Y0197979D01*
X0095479Y0196500D01*
X0102521Y0196500D01*
X0107500Y0201479D01*
X0107500Y0208521D01*
X0106196Y0209824D01*
X0111804Y0209824D01*
X0110500Y0208521D01*
X0110500Y0201479D01*
X0115479Y0196500D01*
X0122521Y0196500D01*
X0124000Y0197979D01*
X0125479Y0196500D01*
X0132521Y0196500D01*
X0134000Y0197979D01*
X0135479Y0196500D01*
X0142521Y0196500D01*
X0144000Y0197979D01*
X0145479Y0196500D01*
X0152521Y0196500D01*
X0154000Y0197979D01*
X0155479Y0196500D01*
X0162521Y0196500D01*
X0164000Y0197979D01*
X0165479Y0196500D01*
X0172521Y0196500D01*
X0177000Y0200979D01*
X0179724Y0198255D01*
X0177200Y0195731D01*
X0177200Y0193246D01*
X0172158Y0193246D01*
X0167588Y0188677D01*
X0167588Y0186104D01*
X0162569Y0186104D01*
X0158000Y0181535D01*
X0158000Y0175073D01*
X0162569Y0170504D01*
X0169031Y0170504D01*
X0173600Y0175073D01*
X0173600Y0177646D01*
X0178000Y0177646D01*
X0178000Y0175073D01*
X0182569Y0170504D01*
X0189031Y0170504D01*
X0193600Y0175073D01*
X0193600Y0177646D01*
X0198619Y0177646D01*
X0203188Y0182215D01*
X0203188Y0184700D01*
X0208231Y0184700D01*
X0212800Y0189269D01*
X0212800Y0195731D01*
X0212031Y0196500D01*
X0218521Y0196500D01*
X0220000Y0197979D01*
X0221479Y0196500D01*
X0228521Y0196500D01*
X0230000Y0197979D01*
X0231479Y0196500D01*
X0238521Y0196500D01*
X0240000Y0197979D01*
X0241479Y0196500D01*
X0242969Y0196500D01*
X0242200Y0195731D01*
X0242200Y0189269D01*
X0246769Y0184700D01*
X0253231Y0184700D01*
X0257800Y0189269D01*
X0257800Y0195731D01*
X0257031Y0196500D01*
X0258521Y0196500D01*
X0261643Y0199622D01*
X0261643Y0161600D01*
X0265920Y0156499D01*
X0263486Y0156499D01*
X0260561Y0155716D01*
X0257939Y0154202D01*
X0255798Y0152061D01*
X0254284Y0149439D01*
X0253501Y0146514D01*
X0253501Y0143486D01*
X0254284Y0140561D01*
X0255798Y0137939D01*
X0257939Y0135798D01*
X0260561Y0134284D01*
X0263486Y0133501D01*
X0266514Y0133501D01*
X0269439Y0134284D01*
X0270698Y0135012D01*
X0270698Y0044988D01*
X0269439Y0045716D01*
X0266514Y0046499D01*
X0263486Y0046499D01*
X0260561Y0045716D01*
X0257939Y0044202D01*
X0255798Y0042061D01*
X0254284Y0039439D01*
X0253501Y0036514D01*
X0253501Y0033486D01*
X0254284Y0030561D01*
X0255798Y0027939D01*
X0257939Y0025798D01*
X0259674Y0024797D01*
X0259674Y0022346D01*
X0258521Y0023500D01*
X0251479Y0023500D01*
X0250000Y0022021D01*
X0248521Y0023500D01*
X0241479Y0023500D01*
X0240000Y0022021D01*
X0238521Y0023500D01*
X0231479Y0023500D01*
X0230000Y0022021D01*
X0228521Y0023500D01*
X0221479Y0023500D01*
X0220000Y0022021D01*
X0218521Y0023500D01*
X0211479Y0023500D01*
X0210000Y0022021D01*
X0208521Y0023500D01*
X0201479Y0023500D01*
X0196500Y0018521D01*
X0196500Y0011479D01*
X0197367Y0010612D01*
X0192633Y0010612D01*
X0193500Y0011479D01*
X0193500Y0018521D01*
X0188521Y0023500D01*
X0181479Y0023500D01*
X0176500Y0018521D01*
X0176500Y0011479D01*
X0177367Y0010612D01*
X0162633Y0010612D01*
X0163500Y0011479D01*
X0163500Y0018521D01*
X0162193Y0019828D01*
X0162161Y0041082D01*
X0237152Y0040896D01*
X0237156Y0040894D01*
X0238581Y0040893D01*
X0240011Y0040889D01*
X0240016Y0040891D01*
X0240020Y0040891D01*
X0241338Y0041435D01*
X0242660Y0041979D01*
X0242664Y0041982D01*
X0242668Y0041984D01*
X0243674Y0042988D01*
X0244691Y0043999D01*
X0244692Y0044003D01*
X0259874Y0059147D01*
X0259878Y0059149D01*
X0260890Y0060161D01*
X0261899Y0061167D01*
X0261901Y0061171D01*
X0261904Y0061175D01*
X0262451Y0062495D01*
X0262998Y0063812D01*
X0262998Y0063817D01*
X0263000Y0063821D01*
X0263000Y0065249D01*
X0263002Y0066676D01*
X0263000Y0066681D01*
X0263000Y0090282D01*
X0261904Y0092928D01*
X0253954Y0100878D01*
X0251928Y0102904D01*
X0249282Y0104000D01*
X0243755Y0104000D01*
X0242661Y0105094D01*
X0235868Y0105094D01*
X0235115Y0104342D01*
X0233299Y0105094D01*
X0225230Y0105094D01*
X0223319Y0104303D01*
X0221856Y0102840D01*
X0221064Y0100929D01*
X0221064Y0092860D01*
X0221817Y0091043D01*
X0221064Y0090291D01*
X0221064Y0083498D01*
X0222668Y0081894D01*
X0221064Y0080291D01*
X0221064Y0073498D01*
X0225868Y0068694D01*
X0232661Y0068694D01*
X0237464Y0073498D01*
X0237464Y0078694D01*
X0242655Y0078694D01*
X0242655Y0072122D01*
X0232433Y0061900D01*
X0146834Y0061900D01*
X0146834Y0067459D01*
X0145646Y0070325D01*
X0144059Y0071912D01*
X0144067Y0071920D01*
X0144649Y0071339D01*
X0147516Y0070151D01*
X0150619Y0070151D01*
X0153486Y0071339D01*
X0154067Y0071920D01*
X0154649Y0071339D01*
X0157516Y0070151D01*
X0160619Y0070151D01*
X0163486Y0071339D01*
X0164067Y0071920D01*
X0164649Y0071339D01*
X0167516Y0070151D01*
X0170619Y0070151D01*
X0173486Y0071339D01*
X0175680Y0073533D01*
X0176867Y0076400D01*
X0176867Y0084703D01*
X0175680Y0087570D01*
X0173486Y0089764D01*
X0170619Y0090951D01*
X0167516Y0090951D01*
X0164649Y0089764D01*
X0164067Y0089182D01*
X0163486Y0089764D01*
X0160619Y0090951D01*
X0157516Y0090951D01*
X0154649Y0089764D01*
X0154067Y0089182D01*
X0153486Y0089764D01*
X0150619Y0090951D01*
X0147516Y0090951D01*
X0144649Y0089764D01*
X0144067Y0089182D01*
X0143486Y0089764D01*
X0140619Y0090951D01*
X0137516Y0090951D01*
X0134649Y0089764D01*
X0134067Y0089182D01*
X0133486Y0089764D01*
X0130619Y0090951D01*
X0127516Y0090951D01*
X0124649Y0089764D01*
X0124067Y0089182D01*
X0123486Y0089764D01*
X0120619Y0090951D01*
X0117516Y0090951D01*
X0114649Y0089764D01*
X0114067Y0089182D01*
X0113486Y0089764D01*
X0110619Y0090951D01*
X0107516Y0090951D01*
X0104649Y0089764D01*
X0102636Y0087751D01*
X0097446Y0087751D01*
X0097446Y0088782D01*
X0092877Y0093351D01*
X0086415Y0093351D01*
X0086218Y0093155D01*
X0084400Y0094973D01*
X0084400Y0144314D01*
X0085748Y0145662D01*
X0086415Y0144995D01*
X0092877Y0144995D01*
X0097446Y0149564D01*
X0097446Y0150529D01*
X0102621Y0150559D01*
X0104597Y0148583D01*
X0107464Y0147395D01*
X0110567Y0147395D01*
X0113434Y0148583D01*
X0114016Y0149164D01*
X0114597Y0148583D01*
X0117464Y0147395D01*
X0120567Y0147395D01*
X0123434Y0148583D01*
X0124016Y0149164D01*
X0124597Y0148583D01*
X0127464Y0147395D01*
X0130567Y0147395D01*
X0133434Y0148583D01*
X0134016Y0149164D01*
X0134597Y0148583D01*
X0137464Y0147395D01*
X0140567Y0147395D01*
X0143434Y0148583D01*
X0144016Y0149164D01*
X0144597Y0148583D01*
X0147464Y0147395D01*
X0150567Y0147395D01*
X0153434Y0148583D01*
X0154016Y0149164D01*
X0154597Y0148583D01*
X0157464Y0147395D01*
X0160567Y0147395D01*
X0163434Y0148583D01*
X0164016Y0149164D01*
X0164597Y0148583D01*
X0167464Y0147395D01*
X0170567Y0147395D01*
X0173434Y0148583D01*
X0174016Y0149164D01*
X0174597Y0148583D01*
X0177464Y0147395D01*
X0180567Y0147395D01*
X0183434Y0148583D01*
X0184016Y0149164D01*
X0184597Y0148583D01*
X0187464Y0147395D01*
X0190567Y0147395D01*
X0193434Y0148583D01*
X0194016Y0149164D01*
X0194597Y0148583D01*
X0197464Y0147395D01*
X0200567Y0147395D01*
X0203434Y0148583D01*
X0205628Y0150777D01*
X0206816Y0153644D01*
X0206816Y0161947D01*
X0205628Y0164814D01*
X0203434Y0167008D01*
X0200567Y0168195D01*
X0197464Y0168195D01*
X0194597Y0167008D01*
X0194016Y0166426D01*
X0193434Y0167008D01*
X0190567Y0168195D01*
X0187464Y0168195D01*
X0184597Y0167008D01*
X0184016Y0166426D01*
X0183434Y0167008D01*
X0180567Y0168195D01*
X0177464Y0168195D01*
X0174597Y0167008D01*
X0174016Y0166426D01*
X0173434Y0167008D01*
X0170567Y0168195D01*
X0167464Y0168195D01*
X0164597Y0167008D01*
X0164016Y0166426D01*
X0163434Y0167008D01*
X0160567Y0168195D01*
X0157464Y0168195D01*
X0154597Y0167008D01*
X0154016Y0166426D01*
X0153434Y0167008D01*
X0150567Y0168195D01*
X0147464Y0168195D01*
X0144597Y0167008D01*
X0144016Y0166426D01*
X0143434Y0167008D01*
X0140567Y0168195D01*
X0137464Y0168195D01*
X0134597Y0167008D01*
X0134016Y0166426D01*
X0133434Y0167008D01*
X0130567Y0168195D01*
X0127464Y0168195D01*
X0124597Y0167008D01*
X0124016Y0166426D01*
X0123434Y0167008D01*
X0120567Y0168195D01*
X0117464Y0168195D01*
X0114597Y0167008D01*
X0114016Y0166426D01*
X0113434Y0167008D01*
X0110567Y0168195D01*
X0107464Y0168195D01*
X0104597Y0167008D01*
X0102548Y0164959D01*
X0096784Y0164926D01*
X0096761Y0171928D01*
X0097349Y0172515D01*
X0097349Y0178977D01*
X0092780Y0183546D01*
X0086318Y0183546D01*
X0081749Y0178977D01*
X0081749Y0172515D01*
X0082361Y0171903D01*
X0082399Y0160400D01*
X0081671Y0160400D01*
X0079025Y0159304D01*
X0077000Y0157278D01*
X0071096Y0151375D01*
X0070000Y0148729D01*
X0070000Y0090558D01*
X0071096Y0087912D01*
X0073122Y0085887D01*
X0079561Y0079447D01*
X0082207Y0078351D01*
X0082446Y0078351D01*
X0082446Y0063416D01*
X0082440Y0062132D01*
X0081846Y0061538D01*
X0081846Y0055076D01*
X0082446Y0054476D01*
X0082446Y0050772D01*
X0083542Y0048125D01*
X0085567Y0046100D01*
X0089471Y0042196D01*
X0092117Y0041100D01*
X0103196Y0041100D01*
X0102421Y0040325D01*
X0101234Y0037459D01*
X0101234Y0029156D01*
X0102421Y0026289D01*
X0104616Y0024095D01*
X0107482Y0022907D01*
X0110585Y0022907D01*
X0111099Y0023120D01*
X0106500Y0018521D01*
X0106500Y0011479D01*
X0107367Y0010612D01*
X0070729Y0010612D01*
X0071499Y0013486D01*
X0071499Y0016514D01*
X0070716Y0019439D01*
X0069202Y0022061D01*
X0067061Y0024202D01*
X0064439Y0025716D01*
X0061514Y0026499D01*
X0058486Y0026499D01*
X0055561Y0025716D01*
X0052939Y0024202D01*
X0050798Y0022061D01*
X0049284Y0019439D01*
X0048501Y0016514D01*
X0048501Y0013486D01*
X0049271Y0010612D01*
X0009871Y0010612D01*
X0009871Y0012196D02*
X0048847Y0012196D01*
X0048501Y0014594D02*
X0009871Y0014594D01*
X0009871Y0016993D02*
X0048629Y0016993D01*
X0049272Y0019391D02*
X0009871Y0019391D01*
X0009871Y0021790D02*
X0050642Y0021790D01*
X0052926Y0024188D02*
X0009871Y0024188D01*
X0009871Y0026587D02*
X0102298Y0026587D01*
X0101305Y0028985D02*
X0009871Y0028985D01*
X0009871Y0031384D02*
X0101234Y0031384D01*
X0101234Y0033782D02*
X0009871Y0033782D01*
X0009871Y0036181D02*
X0101234Y0036181D01*
X0101698Y0038579D02*
X0009871Y0038579D01*
X0009871Y0040978D02*
X0103074Y0040978D01*
X0089646Y0038307D02*
X0089600Y0038307D01*
X0089600Y0028761D01*
X0094661Y0023700D01*
X0135454Y0023700D01*
X0139034Y0027280D01*
X0139034Y0033307D01*
X0136834Y0033782D02*
X0147772Y0033782D01*
X0147775Y0031384D02*
X0136834Y0031384D01*
X0136834Y0029156D02*
X0136834Y0037459D01*
X0135646Y0040325D01*
X0134872Y0041100D01*
X0147761Y0041100D01*
X0147787Y0023500D01*
X0141479Y0023500D01*
X0140000Y0022021D01*
X0138521Y0023500D01*
X0132017Y0023500D01*
X0133452Y0024095D01*
X0135646Y0026289D01*
X0136834Y0029156D01*
X0136763Y0028985D02*
X0147779Y0028985D01*
X0147783Y0026587D02*
X0135770Y0026587D01*
X0133546Y0024188D02*
X0147786Y0024188D01*
X0147768Y0036181D02*
X0136834Y0036181D01*
X0136370Y0038579D02*
X0147765Y0038579D01*
X0147761Y0040978D02*
X0134994Y0040978D01*
X0143619Y0055500D02*
X0138950Y0060169D01*
X0138950Y0063307D01*
X0139034Y0063307D01*
X0146834Y0062564D02*
X0233097Y0062564D01*
X0235496Y0064963D02*
X0146834Y0064963D01*
X0146834Y0067361D02*
X0237894Y0067361D01*
X0240293Y0069760D02*
X0233726Y0069760D01*
X0236125Y0072158D02*
X0242655Y0072158D01*
X0242655Y0074557D02*
X0237464Y0074557D01*
X0237464Y0076955D02*
X0242655Y0076955D01*
X0249055Y0082935D02*
X0249055Y0069471D01*
X0235084Y0055500D01*
X0143619Y0055500D01*
X0145881Y0069760D02*
X0224802Y0069760D01*
X0222404Y0072158D02*
X0174305Y0072158D01*
X0176104Y0074557D02*
X0221064Y0074557D01*
X0221064Y0076955D02*
X0176867Y0076955D01*
X0176867Y0079354D02*
X0221064Y0079354D01*
X0222526Y0081752D02*
X0176867Y0081752D01*
X0176867Y0084151D02*
X0221064Y0084151D01*
X0221064Y0086549D02*
X0176102Y0086549D01*
X0174301Y0088948D02*
X0221064Y0088948D01*
X0221691Y0091346D02*
X0094881Y0091346D01*
X0097280Y0088948D02*
X0103833Y0088948D01*
X0114649Y0101339D02*
X0117516Y0100151D01*
X0120619Y0100151D01*
X0123486Y0101339D01*
X0124067Y0101920D01*
X0124649Y0101339D01*
X0127516Y0100151D01*
X0130619Y0100151D01*
X0133486Y0101339D01*
X0134067Y0101920D01*
X0134649Y0101339D01*
X0137516Y0100151D01*
X0140619Y0100151D01*
X0143486Y0101339D01*
X0144067Y0101920D01*
X0144649Y0101339D01*
X0147516Y0100151D01*
X0150619Y0100151D01*
X0153486Y0101339D01*
X0154067Y0101920D01*
X0154649Y0101339D01*
X0157516Y0100151D01*
X0160619Y0100151D01*
X0163486Y0101339D01*
X0164067Y0101920D01*
X0164649Y0101339D01*
X0167516Y0100151D01*
X0170619Y0100151D01*
X0173486Y0101339D01*
X0175680Y0103533D01*
X0176867Y0106400D01*
X0176867Y0114703D01*
X0175680Y0117570D01*
X0174715Y0118534D01*
X0177464Y0117395D01*
X0180567Y0117395D01*
X0183434Y0118583D01*
X0184016Y0119164D01*
X0184597Y0118583D01*
X0187464Y0117395D01*
X0190567Y0117395D01*
X0193434Y0118583D01*
X0195628Y0120777D01*
X0196816Y0123644D01*
X0196816Y0131947D01*
X0195628Y0134814D01*
X0193434Y0137008D01*
X0190567Y0138195D01*
X0187464Y0138195D01*
X0184597Y0137008D01*
X0184016Y0136426D01*
X0183434Y0137008D01*
X0180567Y0138195D01*
X0177464Y0138195D01*
X0174597Y0137008D01*
X0174016Y0136426D01*
X0173434Y0137008D01*
X0170567Y0138195D01*
X0167464Y0138195D01*
X0164597Y0137008D01*
X0164016Y0136426D01*
X0163434Y0137008D01*
X0160567Y0138195D01*
X0157464Y0138195D01*
X0154597Y0137008D01*
X0154016Y0136426D01*
X0153434Y0137008D01*
X0150567Y0138195D01*
X0147464Y0138195D01*
X0144597Y0137008D01*
X0144016Y0136426D01*
X0143434Y0137008D01*
X0140567Y0138195D01*
X0137464Y0138195D01*
X0134597Y0137008D01*
X0134016Y0136426D01*
X0133434Y0137008D01*
X0130567Y0138195D01*
X0127464Y0138195D01*
X0124597Y0137008D01*
X0124016Y0136426D01*
X0123434Y0137008D01*
X0120567Y0138195D01*
X0117464Y0138195D01*
X0114597Y0137008D01*
X0114016Y0136426D01*
X0113434Y0137008D01*
X0110567Y0138195D01*
X0107464Y0138195D01*
X0104597Y0137008D01*
X0102403Y0134814D01*
X0101216Y0131947D01*
X0101216Y0123644D01*
X0102403Y0120777D01*
X0104597Y0118583D01*
X0107464Y0117395D01*
X0110567Y0117395D01*
X0113434Y0118583D01*
X0114016Y0119164D01*
X0114033Y0119147D01*
X0112455Y0117570D01*
X0111267Y0114703D01*
X0111267Y0106400D01*
X0112455Y0103533D01*
X0114649Y0101339D01*
X0115610Y0100940D02*
X0084400Y0100940D01*
X0084400Y0098542D02*
X0221064Y0098542D01*
X0221069Y0100940D02*
X0172524Y0100940D01*
X0175486Y0103339D02*
X0222355Y0103339D01*
X0221064Y0096143D02*
X0084400Y0096143D01*
X0085628Y0093745D02*
X0221064Y0093745D01*
X0239264Y0086894D02*
X0245096Y0086894D01*
X0249055Y0082935D01*
X0263000Y0081752D02*
X0270698Y0081752D01*
X0270698Y0079354D02*
X0263000Y0079354D01*
X0263000Y0076955D02*
X0270698Y0076955D01*
X0270698Y0074557D02*
X0263000Y0074557D01*
X0263000Y0072158D02*
X0270698Y0072158D01*
X0270698Y0069760D02*
X0263000Y0069760D01*
X0263000Y0067361D02*
X0270698Y0067361D01*
X0270698Y0064963D02*
X0263000Y0064963D01*
X0262480Y0062564D02*
X0270698Y0062564D01*
X0270698Y0060166D02*
X0260895Y0060166D01*
X0258491Y0057767D02*
X0270698Y0057767D01*
X0270698Y0055369D02*
X0256086Y0055369D01*
X0253682Y0052970D02*
X0270698Y0052970D01*
X0270698Y0050572D02*
X0251277Y0050572D01*
X0248873Y0048173D02*
X0270698Y0048173D01*
X0270698Y0045775D02*
X0269218Y0045775D01*
X0260782Y0045775D02*
X0246468Y0045775D01*
X0244065Y0043376D02*
X0257114Y0043376D01*
X0255173Y0040978D02*
X0240230Y0040978D01*
X0253501Y0036181D02*
X0162168Y0036181D01*
X0162165Y0038579D02*
X0254054Y0038579D01*
X0253501Y0033782D02*
X0162172Y0033782D01*
X0162175Y0031384D02*
X0254064Y0031384D01*
X0255195Y0028985D02*
X0162179Y0028985D01*
X0162183Y0026587D02*
X0257151Y0026587D01*
X0259674Y0024188D02*
X0162186Y0024188D01*
X0162190Y0021790D02*
X0179769Y0021790D01*
X0177370Y0019391D02*
X0162630Y0019391D01*
X0163500Y0016993D02*
X0176500Y0016993D01*
X0176500Y0014594D02*
X0163500Y0014594D01*
X0163500Y0012196D02*
X0176500Y0012196D01*
X0190231Y0021790D02*
X0199769Y0021790D01*
X0197370Y0019391D02*
X0192630Y0019391D01*
X0193500Y0016993D02*
X0196500Y0016993D01*
X0196500Y0014594D02*
X0193500Y0014594D01*
X0193500Y0012196D02*
X0196500Y0012196D01*
X0204289Y0040978D02*
X0162161Y0040978D01*
X0109769Y0021790D02*
X0069358Y0021790D01*
X0067074Y0024188D02*
X0104522Y0024188D01*
X0107370Y0019391D02*
X0070728Y0019391D01*
X0071371Y0016993D02*
X0106500Y0016993D01*
X0106500Y0014594D02*
X0071499Y0014594D01*
X0071153Y0012196D02*
X0106500Y0012196D01*
X0088291Y0043376D02*
X0009871Y0043376D01*
X0009871Y0045775D02*
X0085892Y0045775D01*
X0083522Y0048173D02*
X0009871Y0048173D01*
X0009871Y0050572D02*
X0029542Y0050572D01*
X0030559Y0049555D02*
X0028055Y0052059D01*
X0026700Y0055330D01*
X0026700Y0058870D01*
X0028055Y0062141D01*
X0030559Y0064645D01*
X0033830Y0066000D01*
X0037370Y0066000D01*
X0040641Y0064645D01*
X0040950Y0064336D01*
X0041259Y0064645D01*
X0044530Y0066000D01*
X0048070Y0066000D01*
X0051341Y0064645D01*
X0051650Y0064336D01*
X0051959Y0064645D01*
X0055230Y0066000D01*
X0058770Y0066000D01*
X0062041Y0064645D01*
X0064545Y0062141D01*
X0065900Y0058870D01*
X0065900Y0055330D01*
X0064545Y0052059D01*
X0062041Y0049555D01*
X0058770Y0048200D01*
X0055230Y0048200D01*
X0051959Y0049555D01*
X0051650Y0049864D01*
X0051341Y0049555D01*
X0048070Y0048200D01*
X0044530Y0048200D01*
X0041259Y0049555D01*
X0040950Y0049864D01*
X0040641Y0049555D01*
X0037370Y0048200D01*
X0033830Y0048200D01*
X0030559Y0049555D01*
X0027677Y0052970D02*
X0009871Y0052970D01*
X0009871Y0055369D02*
X0026700Y0055369D01*
X0026700Y0057767D02*
X0009871Y0057767D01*
X0009871Y0060166D02*
X0027237Y0060166D01*
X0028478Y0062564D02*
X0009871Y0062564D01*
X0009871Y0064963D02*
X0031326Y0064963D01*
X0039874Y0064963D02*
X0042026Y0064963D01*
X0050574Y0064963D02*
X0052726Y0064963D01*
X0061274Y0064963D02*
X0082446Y0064963D01*
X0082446Y0067361D02*
X0009871Y0067361D01*
X0009871Y0069760D02*
X0082446Y0069760D01*
X0082446Y0072158D02*
X0009871Y0072158D01*
X0009871Y0074557D02*
X0082446Y0074557D01*
X0082446Y0076955D02*
X0009871Y0076955D01*
X0009871Y0079354D02*
X0079786Y0079354D01*
X0077256Y0081752D02*
X0009871Y0081752D01*
X0009871Y0084151D02*
X0074857Y0084151D01*
X0072459Y0086549D02*
X0037929Y0086549D01*
X0037234Y0086262D02*
X0033932Y0086262D01*
X0030881Y0087525D01*
X0028546Y0089860D01*
X0027283Y0092911D01*
X0027283Y0096212D01*
X0028546Y0099263D01*
X0030881Y0101598D01*
X0033932Y0102861D01*
X0037234Y0102861D01*
X0040284Y0101598D01*
X0042619Y0099263D01*
X0043883Y0096212D01*
X0043883Y0092911D01*
X0042619Y0089860D01*
X0040284Y0087525D01*
X0037234Y0086262D01*
X0033237Y0086549D02*
X0009871Y0086549D01*
X0009871Y0088948D02*
X0029458Y0088948D01*
X0027930Y0091346D02*
X0009871Y0091346D01*
X0009871Y0093745D02*
X0027283Y0093745D01*
X0027283Y0096143D02*
X0009871Y0096143D01*
X0009871Y0098542D02*
X0028248Y0098542D01*
X0030224Y0100940D02*
X0009871Y0100940D01*
X0009871Y0103339D02*
X0070000Y0103339D01*
X0070000Y0105737D02*
X0009871Y0105737D01*
X0009871Y0108136D02*
X0070000Y0108136D01*
X0070000Y0110534D02*
X0009871Y0110534D01*
X0009871Y0112933D02*
X0070000Y0112933D01*
X0070000Y0115332D02*
X0009871Y0115332D01*
X0009871Y0117730D02*
X0070000Y0117730D01*
X0070000Y0120129D02*
X0009871Y0120129D01*
X0009871Y0122527D02*
X0070000Y0122527D01*
X0070000Y0124926D02*
X0055172Y0124926D01*
X0054228Y0123981D02*
X0056534Y0126287D01*
X0057783Y0129301D01*
X0057783Y0138563D01*
X0056534Y0141577D01*
X0054228Y0143884D01*
X0051214Y0145132D01*
X0047952Y0145132D01*
X0044938Y0143884D01*
X0042631Y0141577D01*
X0041383Y0138563D01*
X0041383Y0129301D01*
X0042631Y0126287D01*
X0044938Y0123981D01*
X0047952Y0122732D01*
X0051214Y0122732D01*
X0054228Y0123981D01*
X0056964Y0127324D02*
X0070000Y0127324D01*
X0070000Y0129723D02*
X0057783Y0129723D01*
X0057783Y0132121D02*
X0070000Y0132121D01*
X0070000Y0134520D02*
X0057783Y0134520D01*
X0057783Y0136918D02*
X0070000Y0136918D01*
X0070000Y0139317D02*
X0057471Y0139317D01*
X0056396Y0141715D02*
X0070000Y0141715D01*
X0070000Y0144114D02*
X0053673Y0144114D01*
X0051214Y0148332D02*
X0047952Y0148332D01*
X0044938Y0149581D01*
X0042631Y0151887D01*
X0041383Y0154901D01*
X0041383Y0164163D01*
X0042631Y0167177D01*
X0044938Y0169484D01*
X0047952Y0170732D01*
X0051214Y0170732D01*
X0054228Y0169484D01*
X0056534Y0167177D01*
X0057783Y0164163D01*
X0057783Y0154901D01*
X0056534Y0151887D01*
X0054228Y0149581D01*
X0051214Y0148332D01*
X0052610Y0148911D02*
X0070075Y0148911D01*
X0070000Y0146512D02*
X0009871Y0146512D01*
X0009871Y0144114D02*
X0045492Y0144114D01*
X0042769Y0141715D02*
X0009871Y0141715D01*
X0009871Y0139317D02*
X0041695Y0139317D01*
X0041383Y0136918D02*
X0009871Y0136918D01*
X0009871Y0134520D02*
X0041383Y0134520D01*
X0041383Y0132121D02*
X0009871Y0132121D01*
X0009871Y0129723D02*
X0041383Y0129723D01*
X0042202Y0127324D02*
X0009871Y0127324D01*
X0009871Y0124926D02*
X0043993Y0124926D01*
X0046555Y0148911D02*
X0009871Y0148911D01*
X0009871Y0151309D02*
X0043209Y0151309D01*
X0041877Y0153708D02*
X0009871Y0153708D01*
X0009871Y0156106D02*
X0041383Y0156106D01*
X0041383Y0158505D02*
X0009871Y0158505D01*
X0009871Y0160903D02*
X0041383Y0160903D01*
X0041383Y0163302D02*
X0009871Y0163302D01*
X0009871Y0165700D02*
X0042019Y0165700D01*
X0043553Y0168099D02*
X0009871Y0168099D01*
X0009871Y0170497D02*
X0047384Y0170497D01*
X0051781Y0170497D02*
X0053767Y0170497D01*
X0051749Y0172515D02*
X0056318Y0167946D01*
X0062780Y0167946D01*
X0067349Y0172515D01*
X0067349Y0178977D01*
X0062780Y0183546D01*
X0056318Y0183546D01*
X0051749Y0178977D01*
X0051749Y0172515D01*
X0051749Y0172896D02*
X0009871Y0172896D01*
X0009871Y0175294D02*
X0051749Y0175294D01*
X0051749Y0177693D02*
X0009871Y0177693D01*
X0009871Y0180091D02*
X0052863Y0180091D01*
X0055262Y0182490D02*
X0042352Y0182490D01*
X0042352Y0184888D02*
X0161353Y0184888D01*
X0158955Y0182490D02*
X0093836Y0182490D01*
X0096235Y0180091D02*
X0158000Y0180091D01*
X0158000Y0177693D02*
X0097349Y0177693D01*
X0097349Y0175294D02*
X0158000Y0175294D01*
X0160177Y0172896D02*
X0097349Y0172896D01*
X0096766Y0170497D02*
X0243354Y0170497D01*
X0242200Y0171651D02*
X0246769Y0167082D01*
X0253231Y0167082D01*
X0257800Y0171651D01*
X0257800Y0178113D01*
X0253231Y0182682D01*
X0246769Y0182682D01*
X0242200Y0178113D01*
X0242200Y0171651D01*
X0242200Y0172896D02*
X0191422Y0172896D01*
X0193600Y0175294D02*
X0242200Y0175294D01*
X0242200Y0177693D02*
X0198666Y0177693D01*
X0201065Y0180091D02*
X0244179Y0180091D01*
X0246577Y0182490D02*
X0203188Y0182490D01*
X0208419Y0184888D02*
X0246581Y0184888D01*
X0244182Y0187287D02*
X0210818Y0187287D01*
X0212800Y0189685D02*
X0242200Y0189685D01*
X0242200Y0192084D02*
X0212800Y0192084D01*
X0212800Y0194482D02*
X0242200Y0194482D01*
X0241098Y0196881D02*
X0238902Y0196881D01*
X0231098Y0196881D02*
X0228902Y0196881D01*
X0221098Y0196881D02*
X0218902Y0196881D01*
X0253419Y0184888D02*
X0261643Y0184888D01*
X0261643Y0182490D02*
X0253423Y0182490D01*
X0255821Y0180091D02*
X0261643Y0180091D01*
X0261643Y0177693D02*
X0257800Y0177693D01*
X0257800Y0175294D02*
X0261643Y0175294D01*
X0261643Y0172896D02*
X0257800Y0172896D01*
X0256646Y0170497D02*
X0261643Y0170497D01*
X0261643Y0168099D02*
X0254248Y0168099D01*
X0253231Y0165162D02*
X0246769Y0165162D01*
X0242200Y0160593D01*
X0242200Y0154131D01*
X0246769Y0149562D01*
X0253231Y0149562D01*
X0257800Y0154131D01*
X0257800Y0160593D01*
X0253231Y0165162D01*
X0255091Y0163302D02*
X0261643Y0163302D01*
X0261643Y0165700D02*
X0204742Y0165700D01*
X0206255Y0163302D02*
X0244909Y0163302D01*
X0242510Y0160903D02*
X0206816Y0160903D01*
X0206816Y0158505D02*
X0242200Y0158505D01*
X0242200Y0156106D02*
X0206816Y0156106D01*
X0206816Y0153708D02*
X0242624Y0153708D01*
X0245022Y0151309D02*
X0205849Y0151309D01*
X0203762Y0148911D02*
X0254143Y0148911D01*
X0253501Y0146512D02*
X0094393Y0146512D01*
X0096792Y0148911D02*
X0104269Y0148911D01*
X0113762Y0148911D02*
X0114269Y0148911D01*
X0123762Y0148911D02*
X0124269Y0148911D01*
X0133762Y0148911D02*
X0134269Y0148911D01*
X0143762Y0148911D02*
X0144269Y0148911D01*
X0153762Y0148911D02*
X0154269Y0148911D01*
X0163762Y0148911D02*
X0164269Y0148911D01*
X0173762Y0148911D02*
X0174269Y0148911D01*
X0183762Y0148911D02*
X0184269Y0148911D01*
X0193762Y0148911D02*
X0194269Y0148911D01*
X0193524Y0136918D02*
X0256820Y0136918D01*
X0255003Y0139317D02*
X0084400Y0139317D01*
X0084400Y0141715D02*
X0253975Y0141715D01*
X0253501Y0144114D02*
X0084400Y0144114D01*
X0084400Y0136918D02*
X0104508Y0136918D01*
X0102281Y0134520D02*
X0084400Y0134520D01*
X0084400Y0132121D02*
X0101288Y0132121D01*
X0101216Y0129723D02*
X0084400Y0129723D01*
X0084400Y0127324D02*
X0101216Y0127324D01*
X0101216Y0124926D02*
X0084400Y0124926D01*
X0084400Y0122527D02*
X0101678Y0122527D01*
X0103052Y0120129D02*
X0084400Y0120129D01*
X0084400Y0117730D02*
X0106656Y0117730D01*
X0111375Y0117730D02*
X0112615Y0117730D01*
X0111528Y0115332D02*
X0084400Y0115332D01*
X0084400Y0112933D02*
X0111267Y0112933D01*
X0111267Y0110534D02*
X0084400Y0110534D01*
X0084400Y0108136D02*
X0111267Y0108136D01*
X0111542Y0105737D02*
X0084400Y0105737D01*
X0084400Y0103339D02*
X0112649Y0103339D01*
X0122524Y0100940D02*
X0125610Y0100940D01*
X0132524Y0100940D02*
X0135610Y0100940D01*
X0142524Y0100940D02*
X0145610Y0100940D01*
X0152524Y0100940D02*
X0155610Y0100940D01*
X0162524Y0100940D02*
X0165610Y0100940D01*
X0176593Y0105737D02*
X0270698Y0105737D01*
X0270698Y0103339D02*
X0250878Y0103339D01*
X0253892Y0100940D02*
X0270698Y0100940D01*
X0270698Y0098542D02*
X0256290Y0098542D01*
X0258689Y0096143D02*
X0270698Y0096143D01*
X0270698Y0093745D02*
X0261087Y0093745D01*
X0262559Y0091346D02*
X0270698Y0091346D01*
X0270698Y0088948D02*
X0263000Y0088948D01*
X0263000Y0086549D02*
X0270698Y0086549D01*
X0270698Y0084151D02*
X0263000Y0084151D01*
X0270698Y0108136D02*
X0176867Y0108136D01*
X0176867Y0110534D02*
X0270698Y0110534D01*
X0270698Y0112933D02*
X0176867Y0112933D01*
X0176607Y0115332D02*
X0270698Y0115332D01*
X0270698Y0117730D02*
X0191375Y0117730D01*
X0194980Y0120129D02*
X0270698Y0120129D01*
X0270698Y0122527D02*
X0196353Y0122527D01*
X0196816Y0124926D02*
X0270698Y0124926D01*
X0270698Y0127324D02*
X0196816Y0127324D01*
X0196816Y0129723D02*
X0270698Y0129723D01*
X0270698Y0132121D02*
X0196744Y0132121D01*
X0195750Y0134520D02*
X0260154Y0134520D01*
X0269846Y0134520D02*
X0270698Y0134520D01*
X0255364Y0151309D02*
X0254978Y0151309D01*
X0257376Y0153708D02*
X0257445Y0153708D01*
X0257800Y0156106D02*
X0262019Y0156106D01*
X0264238Y0158505D02*
X0257800Y0158505D01*
X0257490Y0160903D02*
X0262227Y0160903D01*
X0245752Y0168099D02*
X0200800Y0168099D01*
X0197231Y0168099D02*
X0190800Y0168099D01*
X0187231Y0168099D02*
X0180800Y0168099D01*
X0177231Y0168099D02*
X0170800Y0168099D01*
X0167231Y0168099D02*
X0160800Y0168099D01*
X0157231Y0168099D02*
X0150800Y0168099D01*
X0147231Y0168099D02*
X0140800Y0168099D01*
X0137231Y0168099D02*
X0130800Y0168099D01*
X0127231Y0168099D02*
X0120800Y0168099D01*
X0117231Y0168099D02*
X0110800Y0168099D01*
X0107231Y0168099D02*
X0096774Y0168099D01*
X0096782Y0165700D02*
X0103290Y0165700D01*
X0082863Y0180091D02*
X0066235Y0180091D01*
X0067349Y0177693D02*
X0081749Y0177693D01*
X0081749Y0175294D02*
X0067349Y0175294D01*
X0067349Y0172896D02*
X0081749Y0172896D01*
X0082366Y0170497D02*
X0065331Y0170497D01*
X0062933Y0168099D02*
X0082374Y0168099D01*
X0082382Y0165700D02*
X0057146Y0165700D01*
X0057783Y0163302D02*
X0082390Y0163302D01*
X0082397Y0160903D02*
X0057783Y0160903D01*
X0057783Y0158505D02*
X0078226Y0158505D01*
X0075827Y0156106D02*
X0057783Y0156106D01*
X0057288Y0153708D02*
X0073429Y0153708D01*
X0071069Y0151309D02*
X0055956Y0151309D01*
X0056165Y0168099D02*
X0055613Y0168099D01*
X0063836Y0182490D02*
X0085262Y0182490D01*
X0069781Y0194482D02*
X0177200Y0194482D01*
X0178350Y0196881D02*
X0172902Y0196881D01*
X0175300Y0199279D02*
X0178700Y0199279D01*
X0170996Y0192084D02*
X0042352Y0192084D01*
X0042352Y0194482D02*
X0060219Y0194482D01*
X0056857Y0196881D02*
X0042352Y0196881D01*
X0042352Y0199279D02*
X0055025Y0199279D01*
X0053985Y0201678D02*
X0042352Y0201678D01*
X0042352Y0204076D02*
X0053501Y0204076D01*
X0053501Y0206475D02*
X0042352Y0206475D01*
X0042352Y0208873D02*
X0054133Y0208873D01*
X0073143Y0196881D02*
X0075098Y0196881D01*
X0082902Y0196881D02*
X0085098Y0196881D01*
X0092902Y0196881D02*
X0095098Y0196881D01*
X0102902Y0196881D02*
X0115098Y0196881D01*
X0112700Y0199279D02*
X0105300Y0199279D01*
X0107500Y0201678D02*
X0110500Y0201678D01*
X0110500Y0204076D02*
X0107500Y0204076D01*
X0107500Y0206475D02*
X0110500Y0206475D01*
X0110853Y0208873D02*
X0107147Y0208873D01*
X0122902Y0196881D02*
X0125098Y0196881D01*
X0132902Y0196881D02*
X0135098Y0196881D01*
X0142902Y0196881D02*
X0145098Y0196881D01*
X0152902Y0196881D02*
X0155098Y0196881D01*
X0162902Y0196881D02*
X0165098Y0196881D01*
X0168597Y0189685D02*
X0042352Y0189685D01*
X0042352Y0187287D02*
X0167588Y0187287D01*
X0173600Y0175294D02*
X0178000Y0175294D01*
X0180177Y0172896D02*
X0171422Y0172896D01*
X0173524Y0136918D02*
X0174508Y0136918D01*
X0183524Y0136918D02*
X0184508Y0136918D01*
X0164508Y0136918D02*
X0163524Y0136918D01*
X0154508Y0136918D02*
X0153524Y0136918D01*
X0144508Y0136918D02*
X0143524Y0136918D01*
X0134508Y0136918D02*
X0133524Y0136918D01*
X0124508Y0136918D02*
X0123524Y0136918D01*
X0114508Y0136918D02*
X0113524Y0136918D01*
X0070000Y0100940D02*
X0040942Y0100940D01*
X0042918Y0098542D02*
X0070000Y0098542D01*
X0070000Y0096143D02*
X0043883Y0096143D01*
X0043883Y0093745D02*
X0070000Y0093745D01*
X0070000Y0091346D02*
X0043235Y0091346D01*
X0041707Y0088948D02*
X0070667Y0088948D01*
X0064122Y0062564D02*
X0082442Y0062564D01*
X0081846Y0060166D02*
X0065363Y0060166D01*
X0065900Y0057767D02*
X0081846Y0057767D01*
X0081846Y0055369D02*
X0065900Y0055369D01*
X0064923Y0052970D02*
X0082446Y0052970D01*
X0082528Y0050572D02*
X0063058Y0050572D01*
X0175519Y0117730D02*
X0176656Y0117730D01*
X0181375Y0117730D02*
X0186656Y0117730D01*
X0255818Y0187287D02*
X0261643Y0187287D01*
X0261643Y0189685D02*
X0257800Y0189685D01*
X0257800Y0192084D02*
X0261643Y0192084D01*
X0261643Y0194482D02*
X0257800Y0194482D01*
X0258902Y0196881D02*
X0261643Y0196881D01*
X0261643Y0199279D02*
X0261300Y0199279D01*
D20*
X0247850Y0096800D02*
X0239264Y0096800D01*
X0239264Y0096894D01*
X0247850Y0096800D02*
X0255800Y0088850D01*
X0255800Y0065253D01*
X0238597Y0048093D01*
X0154950Y0048300D01*
X0093549Y0048300D01*
X0089646Y0052204D01*
X0089646Y0058307D01*
X0089646Y0063400D01*
X0109034Y0063307D01*
X0089646Y0063400D02*
X0089646Y0080551D01*
X0109067Y0080551D01*
X0089646Y0080551D02*
X0089646Y0085551D01*
X0083639Y0085551D01*
X0077200Y0091990D01*
X0077200Y0147297D01*
X0083103Y0153200D01*
X0089646Y0153200D01*
X0089646Y0152795D02*
X0089608Y0157685D01*
X0109016Y0157795D01*
X0089608Y0157685D02*
X0089549Y0175746D01*
X0154950Y0048300D02*
X0155000Y0015000D01*
D21*
X0089646Y0152795D02*
X0089646Y0153200D01*
M02*
